<svg width="311" height="207" viewBox="0 0 311 207" fill="none" xmlns="http://www.w3.org/2000/svg">
<g clip-path="url(#clip0_130_77)">
<path d="M303.058 199.947L299.986 201.251L293.476 190.062L298.009 188.136L303.058 199.947Z" fill="#FFB6B6"/>
<path d="M277.677 202.844L274.339 202.844L272.751 190.005H277.678L277.677 202.844Z" fill="#FFB6B6"/>
<path d="M277.795 206.316L267.528 206.316V206.187C267.528 205.13 267.949 204.117 268.699 203.37C269.448 202.622 270.464 202.203 271.524 202.203L273.4 200.784L276.899 202.203L277.795 202.203L277.795 206.316Z" fill="#2F2E41"/>
<path d="M304.925 202.169L295.481 206.182L295.43 206.063C295.014 205.091 295.003 203.994 295.399 203.014C295.794 202.034 296.564 201.25 297.539 200.836L298.707 198.798L302.484 198.735L303.308 198.385L304.925 202.169Z" fill="#2F2E41"/>
<path d="M274.402 126.862L269.328 157.664L270.709 162.254L268.897 165.505L271.558 194.054L270.478 196.425L273.496 198.28H279.637L279.963 172.434L281.48 168.64V166.548L284.568 150.788L285.136 168.816L286.034 172.616L285.28 175.323L286.266 177.218L294.715 195.306H301.601L301.068 191.215C302.302 190.592 299.216 188.772 298.919 187.426L299.933 185.151L298.919 180.855L297.99 172.46L298.97 154.74L298.509 130.878C296.197 127.788 293.632 125.404 290.453 124.737L274.402 126.862Z" fill="#2F2E41"/>
<path d="M286.759 86.2972C290.602 86.2972 293.717 83.1911 293.717 79.3595C293.717 75.5279 290.602 72.4218 286.759 72.4218C282.915 72.4218 279.8 75.5279 279.8 79.3595C279.8 83.1911 282.915 86.2972 286.759 86.2972Z" fill="#FFB6B6"/>
<path d="M258.068 134.139C257.981 133.75 257.981 133.346 258.068 132.956C258.155 132.566 258.326 132.2 258.57 131.884C258.814 131.568 259.124 131.308 259.48 131.125C259.835 130.941 260.227 130.837 260.627 130.82L263.43 121.529L266.671 125.4L263.512 133.629C263.495 134.301 263.232 134.943 262.773 135.434C262.313 135.926 261.688 136.232 261.017 136.295C260.346 136.358 259.675 136.173 259.132 135.776C258.588 135.378 258.209 134.796 258.068 134.139Z" fill="#FFB6B6"/>
<path d="M276.252 95.9514L274.996 93.6631L273.377 94.2019C273.377 94.2019 271.59 95.3516 269.087 99.6918C267.93 101.699 265.428 114.572 265.428 114.572L259.58 130.01L265.542 131.015L270.517 118.292L276.284 106.117L276.252 95.9514Z" fill="#6C63FF"/>
<path d="M286.501 126.764C291.4 126.764 296.344 127.726 298.368 131.164C298.316 130.417 298.183 129.12 298.045 127.931L297.539 124.736L298.052 121.805L298.73 121.129L297.515 119.918L298.344 113.802L301.08 99.3931C301.294 98.2596 301.127 97.0872 300.604 96.0582C300.081 95.0293 299.232 94.2015 298.188 93.7036L295.56 92.4434L291.298 88.503L283.59 88.4456L281.076 91.7049L274.456 93.9465L275.567 116.864L274.839 118.558C275.002 118.707 275.347 119.027 275.533 119.232C275.797 119.523 275.461 121.022 275.237 121.889L274.929 124.199L275.898 124.889L274.639 126.372L274.387 128.254C275.637 127.959 281.042 126.764 286.501 126.764Z" fill="#6C63FF"/>
<path d="M288.539 85.9574C288.569 85.8922 288.598 85.8267 288.628 85.761C288.616 85.7614 288.605 85.763 288.594 85.7633L288.539 85.9574Z" fill="#2F2E41"/>
<path d="M293.911 72.7373C293.581 72.4265 293.151 72.2414 292.698 72.2143C292.248 72.2287 291.791 72.6339 291.885 73.0731C291.058 71.614 289.742 70.4919 288.169 69.9036C286.595 69.3153 284.864 69.2984 283.279 69.8559C282.16 70.2493 281.064 71.0363 280.807 72.1906C280.782 72.4936 280.691 72.7876 280.541 73.0524C280.411 73.1939 280.242 73.2944 280.056 73.3416C279.869 73.3887 279.673 73.3804 279.491 73.3177L279.48 73.3144C279.417 73.2932 279.35 73.2911 279.287 73.3084C279.223 73.3257 279.166 73.3616 279.124 73.4115C279.081 73.4613 279.054 73.5228 279.047 73.588C279.039 73.6532 279.052 73.7191 279.082 73.7772L279.399 74.3655C279 74.4542 278.585 74.4454 278.191 74.3399C278.125 74.3228 278.056 74.3263 277.992 74.35C277.929 74.3736 277.874 74.4163 277.836 74.4721C277.798 74.528 277.778 74.5942 277.779 74.6618C277.78 74.7294 277.802 74.795 277.842 74.8496C278.368 75.5669 279.054 76.152 279.847 76.5581C280.64 76.9643 281.516 77.1805 282.408 77.1893C283.672 77.1816 284.949 76.7472 286.18 77.0371C286.656 77.1492 287.101 77.3662 287.482 77.6721C287.863 77.978 288.17 78.365 288.381 78.8048C288.593 79.2446 288.703 79.726 288.703 80.2137C288.704 80.7013 288.594 81.1829 288.384 81.623C288.762 81.2108 289.493 81.3084 289.879 81.7126C290.057 81.929 290.189 82.1795 290.266 82.4486C290.343 82.7177 290.364 82.9998 290.327 83.2772C290.224 84.1271 289.971 84.9521 289.58 85.714C291.075 85.6682 292.52 85.1659 293.719 84.2751C294.919 83.3843 295.816 82.1479 296.288 80.7328C296.76 79.3178 296.786 77.7923 296.361 76.3624C295.935 74.9325 295.08 73.6672 293.911 72.7373Z" fill="#2F2E41"/>
<path d="M69.0124 46.835C78.5674 46.835 86.3132 39.1126 86.3132 29.5866C86.3132 20.0605 78.5674 12.3381 69.0124 12.3381C59.4574 12.3381 51.7115 20.0605 51.7115 29.5866C51.7115 39.1126 59.4574 46.835 69.0124 46.835Z" fill="#6C63FF"/>
<path d="M20.3866 80.8955C11.7056 61.7519 12.0257 37.4866 25.4983 21.3324C30.0056 43.7328 42.3151 63.8217 60.2488 78.0448C67.1851 83.5051 75.4701 88.8582 77.3649 97.4644C78.544 102.819 76.8727 108.483 73.9835 113.148C71.0941 117.813 67.0666 121.65 63.0849 125.432L62.6382 126.726C45.3126 114.767 29.0676 100.039 20.3866 80.8955Z" fill="#F2F2F2"/>
<path d="M25.8733 21.566C22.7727 38.4926 25.0761 56.5163 32.6123 72.0243C34.2417 75.377 36.1872 78.6368 38.7919 81.3333C41.3978 84.0311 44.5135 85.7294 48.0978 86.7727C51.3745 87.7265 54.8371 88.3238 57.8242 90.0552C60.9727 91.8801 62.9267 94.9421 63.6879 98.4536C64.6193 102.75 63.9466 107.124 63.1397 111.378C62.2438 116.102 61.2382 120.994 62.5364 125.743C62.6937 126.318 61.7891 126.528 61.632 125.953C59.3733 117.691 63.7648 109.543 63.151 101.237C62.8645 97.3612 61.4048 93.548 58.0714 91.3023C55.1566 89.3386 51.5865 88.7196 48.2604 87.7824C44.7679 86.7984 41.6314 85.2953 38.9624 82.8019C36.2323 80.2514 34.1548 77.0606 32.4467 73.764C28.5944 66.3295 26.0549 58.1385 24.7114 49.8915C23.1664 40.4127 23.2592 30.7403 24.9857 21.2927C25.0928 20.708 25.9797 20.9851 25.8733 21.566Z" fill="white"/>
<path d="M29.896 67.1123C27.0836 68.0109 24.0424 67.8835 21.3155 66.753C18.5886 65.6225 16.3535 63.5624 15.0095 60.9407C14.7394 60.4092 15.555 59.9658 15.8255 60.4979C17.0725 62.9416 19.1547 64.8604 21.6961 65.9079C24.2376 66.9555 27.0709 67.0628 29.6848 66.2106C30.253 66.026 30.461 66.9288 29.896 67.1123Z" fill="white"/>
<path d="M46.3725 86.5072C49.1828 81.1803 49.8759 74.993 48.3137 69.1792C48.1584 68.6033 49.063 68.3934 49.2181 68.9686C50.8324 75.0217 50.098 81.459 47.1613 86.9959C46.8811 87.5235 46.0937 87.0319 46.3725 86.5072Z" fill="white"/>
<path d="M24.3603 40.7135C25.5212 40.5918 26.6335 40.1847 27.5975 39.5285C28.5615 38.8724 29.347 37.9878 29.8833 36.9542C30.1567 36.4234 30.9438 36.9155 30.6722 37.4429C30.0743 38.5821 29.2056 39.558 28.1422 40.2853C27.0787 41.0126 25.8528 41.4692 24.5715 41.6152C24.4519 41.639 24.3277 41.6166 24.2241 41.5524C24.1205 41.4882 24.0452 41.3871 24.0137 41.2696C23.9864 41.1501 24.0074 41.0246 24.0723 40.9205C24.1372 40.8163 24.2407 40.7419 24.3603 40.7135Z" fill="white"/>
<path d="M96.8465 21.5199C96.6852 21.8562 96.5239 22.1925 96.3664 22.5357C94.2217 27.0683 92.4498 31.7671 91.0683 36.5857C90.9556 36.9566 90.8469 37.3341 90.7451 37.7074C87.5409 49.3521 86.5331 61.4885 87.7728 73.5C88.2705 78.2791 89.1323 83.0136 90.3505 87.6624C92.0333 94.0826 94.3702 100.91 93.8429 107.321C93.7954 107.99 93.7063 108.656 93.5763 109.315L64.2564 127.169C64.1694 127.176 64.086 127.19 63.9987 127.198L62.8607 127.964C62.7811 127.728 62.7036 127.483 62.6239 127.247C62.5772 127.111 62.5369 126.97 62.4902 126.834C62.4611 126.742 62.4323 126.65 62.4007 126.568C62.3909 126.537 62.3815 126.507 62.3757 126.483C62.3442 126.401 62.3235 126.322 62.2961 126.247C61.859 124.874 61.4309 123.496 61.0116 122.112C61.0076 122.105 61.0076 122.105 61.01 122.095C57.8427 111.542 55.5312 100.633 54.954 89.7211C54.9367 89.3928 54.9151 89.058 54.9112 88.7216C54.6784 83.8015 54.8493 78.8708 55.4223 73.9785C55.7447 71.3007 56.2028 68.6409 56.7949 66.0092C58.3381 59.2123 60.944 52.6998 64.517 46.7102C71.6417 34.7712 82.517 25.2368 95.827 21.7745C96.1675 21.6861 96.5019 21.6016 96.8465 21.5199Z" fill="#F2F2F2"/>
<path d="M97.0079 21.931C84.3103 33.5848 75.2649 49.3584 71.917 66.2642C71.1931 69.9192 70.778 73.6897 71.2293 77.4062C71.6807 81.1244 73.1429 84.3506 75.3747 87.3351C77.415 90.0635 79.8189 92.6188 81.1584 95.7941C82.5703 99.1411 82.2813 102.759 80.7685 106.019C78.9175 110.009 75.7391 113.097 72.5257 116.01C68.9577 119.244 65.2003 122.546 63.3692 127.117C63.1474 127.671 62.2984 127.295 62.52 126.742C65.7057 118.79 74.1328 114.92 78.6588 107.92C80.7707 104.653 81.908 100.732 80.6026 96.9383C79.4611 93.6208 76.9845 90.9836 74.8947 88.2389C72.7004 85.3568 71.1038 82.274 70.4786 78.6812C69.8389 75.0059 70.1071 71.2113 70.7341 67.5539C72.1479 59.3055 75.0669 51.2411 78.9744 43.8499C83.4651 35.3543 89.3803 27.6871 96.4642 21.1801C96.9029 20.7775 97.4436 21.5311 97.0079 21.931Z" fill="white"/>
<path d="M72.7144 60.7118C69.9262 59.7411 67.5749 57.814 66.0804 55.2745C64.5858 52.7351 64.0453 49.7486 64.5555 46.8485C64.6607 46.2621 65.5797 46.3976 65.4744 46.9848C64.9943 49.6845 65.498 52.4663 66.8946 54.8282C68.2912 57.1902 70.4886 58.9766 73.0903 59.865C73.6555 60.0588 73.2763 60.9044 72.7144 60.7118Z" fill="white"/>
<path d="M74.1574 86.0875C79.6182 83.5211 83.9081 78.9969 86.1717 73.4172C86.3955 72.8642 87.2445 73.2396 87.021 73.792C84.6545 79.594 80.1806 84.293 74.4921 86.9512C73.9498 87.2042 73.618 86.3391 74.1574 86.0875Z" fill="white"/>
<path d="M84.2367 36.3111C85.237 36.9108 86.3711 37.2534 87.537 37.3081C88.703 37.3628 89.8643 37.128 90.9167 36.6247C91.4556 36.3649 91.7869 37.2304 91.2515 37.4884C90.0861 38.0391 88.8032 38.2969 87.5149 38.2392C86.2266 38.1816 84.972 37.8103 83.8608 37.1578C83.7509 37.1051 83.6653 37.0126 83.6213 36.8991C83.5773 36.7857 83.5784 36.6598 83.6241 36.5471C83.6745 36.4352 83.767 36.3477 83.8818 36.3035C83.9965 36.2593 84.124 36.262 84.2367 36.3111Z" fill="white"/>
<path d="M166.257 59.9267C157.576 40.7832 157.896 16.5178 171.368 0.363647C175.876 22.764 188.185 42.8529 206.119 57.0761C213.055 62.5364 221.34 67.8895 223.235 76.4957C224.414 81.8507 222.743 87.5147 219.854 92.1793C216.964 96.8441 212.937 100.681 208.955 104.463L208.508 105.757C191.183 93.798 174.938 79.0703 166.257 59.9267Z" fill="#F2F2F2"/>
<path d="M171.743 0.597239C168.643 17.5238 170.946 35.5476 178.482 51.0555C180.112 54.4083 182.057 57.668 184.662 60.3646C187.268 63.0624 190.384 64.7606 193.968 65.8039C197.245 66.7578 200.707 67.3551 203.694 69.0864C206.843 70.9113 208.797 73.9733 209.558 77.4848C210.489 81.7812 209.817 86.1549 209.01 90.4093C208.114 95.133 207.108 100.025 208.406 104.774C208.564 105.349 207.659 105.559 207.502 104.984C205.243 96.7227 209.635 88.5745 209.021 80.2683C208.735 76.3925 207.275 72.5792 203.941 70.3336C201.027 68.3699 197.457 67.7508 194.13 66.8137C190.638 65.8296 187.501 64.3265 184.832 61.8332C182.102 59.2826 180.025 56.0918 178.317 52.7953C174.464 45.3608 171.925 37.1697 170.581 28.9227C169.036 19.444 169.129 9.77155 170.856 0.32397C170.963 -0.260732 171.85 0.0163721 171.743 0.597239Z" fill="white"/>
<path d="M175.766 46.1435C172.954 47.0421 169.912 46.9148 167.186 45.7843C164.459 44.6538 162.224 42.5937 160.88 39.9719C160.609 39.4405 161.425 38.997 161.696 39.5292C162.943 41.9729 165.025 43.8916 167.566 44.9392C170.108 45.9868 172.941 46.0941 175.555 45.2418C176.123 45.0573 176.331 45.96 175.766 46.1435Z" fill="white"/>
<path d="M192.243 65.5385C195.053 60.2115 195.746 54.0243 194.184 48.2105C194.028 47.6346 194.933 47.4247 195.088 47.9999C196.703 54.0529 195.968 60.4902 193.031 66.0272C192.751 66.5547 191.964 66.0632 192.243 65.5385Z" fill="white"/>
<path d="M170.23 19.7447C171.391 19.6231 172.504 19.2159 173.468 18.5598C174.432 17.9036 175.217 17.019 175.753 15.9855C176.027 15.4546 176.814 15.9468 176.542 16.4742C175.944 17.6133 175.076 18.5892 174.012 19.3165C172.949 20.0438 171.723 20.5004 170.442 20.6464C170.322 20.6703 170.198 20.6478 170.094 20.5836C169.991 20.5194 169.915 20.4183 169.884 20.3008C169.856 20.1813 169.877 20.0559 169.942 19.9517C170.007 19.8476 170.111 19.7732 170.23 19.7447Z" fill="white"/>
<path d="M242.717 0.551147C242.555 0.887452 242.394 1.22376 242.236 1.56694C240.092 6.09952 238.32 10.7983 236.938 15.617C236.826 15.9878 236.717 16.3654 236.615 16.7387C233.411 28.3833 232.403 40.5198 233.643 52.5312C234.141 57.3104 235.002 62.0449 236.221 66.6937C237.903 73.1138 240.24 79.9414 239.713 86.3521C239.665 87.0215 239.576 87.6874 239.446 88.3458L210.126 106.2C210.039 106.207 209.956 106.221 209.869 106.229L208.731 106.995C208.651 106.76 208.574 106.514 208.494 106.278C208.447 106.142 208.407 106.002 208.36 105.865C208.331 105.773 208.302 105.681 208.271 105.599C208.261 105.569 208.251 105.538 208.246 105.514C208.214 105.432 208.194 105.353 208.166 105.278C207.729 103.905 207.301 102.527 206.882 101.143C206.878 101.136 206.878 101.136 206.88 101.126C203.713 90.5732 201.401 79.6643 200.824 68.7524C200.807 68.424 200.785 68.0893 200.781 67.7528C200.548 62.8328 200.719 57.902 201.292 53.0098C201.615 50.332 202.073 47.6721 202.665 45.0404C204.208 38.2436 206.814 31.731 210.387 25.7415C217.512 13.8025 228.387 4.26803 241.697 0.80572C242.038 0.717394 242.372 0.6328 242.717 0.551147Z" fill="#F0F0F0"/>
<path d="M242.878 0.962371C230.18 12.6162 221.135 28.3897 217.787 45.2956C217.063 48.9506 216.648 52.7211 217.099 56.4376C217.551 60.1558 219.013 63.382 221.245 66.3664C223.285 69.0948 225.689 71.6502 227.028 74.8255C228.44 78.1725 228.151 81.7902 226.638 85.0508C224.788 89.0403 221.609 92.1287 218.396 95.0413C214.828 98.2751 211.07 101.578 209.239 106.148C209.017 106.702 208.168 106.327 208.39 105.774C211.576 97.8214 220.003 93.9515 224.529 86.951C226.641 83.6844 227.778 79.7635 226.473 75.9697C225.331 72.6522 222.855 70.015 220.765 67.2702C218.57 64.3882 216.974 61.3053 216.349 57.7125C215.709 54.0373 215.977 50.2427 216.604 46.5853C218.018 38.3369 220.937 30.2725 224.844 22.8813C229.335 14.3856 235.25 6.71844 242.334 0.211437C242.773 -0.191125 243.314 0.56244 242.878 0.962371Z" fill="white"/>
<path d="M218.584 39.7431C215.796 38.7725 213.445 36.8454 211.95 34.3059C210.456 31.7664 209.915 28.78 210.426 25.8799C210.531 25.2935 211.45 25.429 211.344 26.0162C210.864 28.7159 211.368 31.4977 212.765 33.8596C214.161 36.2215 216.359 38.0079 218.96 38.8964C219.526 39.0901 219.146 39.9358 218.584 39.7431Z" fill="white"/>
<path d="M220.027 65.1189C225.488 62.5524 229.778 58.0283 232.042 52.4486C232.266 51.8956 233.115 52.271 232.891 52.8233C230.525 58.6253 226.051 63.3243 220.362 65.9826C219.82 66.2355 219.488 65.3705 220.027 65.1189Z" fill="white"/>
<path d="M230.107 15.3423C231.107 15.942 232.241 16.2846 233.407 16.3393C234.573 16.3941 235.734 16.1592 236.787 15.6559C237.326 15.3962 237.657 16.2616 237.122 16.5196C235.956 17.0703 234.673 17.3281 233.385 17.2705C232.097 17.2129 230.842 16.8416 229.731 16.1891C229.621 16.1363 229.535 16.0438 229.491 15.9304C229.447 15.8169 229.448 15.691 229.494 15.5783C229.545 15.4665 229.637 15.3789 229.752 15.3347C229.867 15.2906 229.994 15.2933 230.107 15.3423Z" fill="white"/>
<path d="M55.6127 201.902L58.8173 204.376L71.277 206.532L85.1259 172.21C85.1259 172.21 93.6067 145.76 117.353 151.171L193.68 149.818C193.68 149.818 217.116 147.424 220.989 158.443C221.722 160.53 241.512 206.637 241.512 206.637L255.387 204.684L253.725 165.376L220.77 89.1106L163.489 85.5448L104.462 89.6179L55.6127 201.902Z" fill="#3F3D56"/>
<path d="M119.049 153.539C131.227 153.539 141.099 143.696 141.099 131.555C141.099 119.414 131.227 109.572 119.049 109.572C106.871 109.572 96.9991 119.414 96.9991 131.555C96.9991 143.696 106.871 153.539 119.049 153.539Z" fill="#2F2E41"/>
<path d="M193.002 153.539C205.18 153.539 215.052 143.696 215.052 131.555C215.052 119.414 205.18 109.572 193.002 109.572C180.824 109.572 170.952 119.414 170.952 131.555C170.952 143.696 180.824 153.539 193.002 153.539Z" fill="#2F2E41"/>
<path d="M93.2675 59.5177L102.347 57.7428C102.347 57.7428 170.703 48.0187 213.91 59.5177L210.642 68.6492L96.3206 67.9728L93.2675 59.5177Z" fill="#E6E6E6"/>
<path d="M185.433 106.697H127.422C120.378 106.697 114.29 101.835 112.947 95.1352L106.598 63.4779C106.457 62.787 106.463 62.0746 106.614 61.386C106.766 60.6974 107.059 60.0479 107.477 59.4789C107.913 58.8818 108.468 58.3807 109.107 58.0065C109.746 57.6322 110.455 57.393 111.191 57.3035C141.787 53.5172 172.084 53.5107 201.24 57.2838C201.965 57.3724 202.665 57.6088 203.294 57.9783C203.924 58.3479 204.471 58.8427 204.9 59.432C205.315 59.9928 205.609 60.6327 205.765 61.3118C205.921 61.991 205.935 62.6948 205.807 63.3796L199.946 94.9398C198.681 101.752 192.578 106.697 185.433 106.697Z" fill="#6C63FF"/>
<path d="M67.462 64.6717L67.7146 60.1414C67.754 59.4357 67.9643 58.7499 68.3275 58.1429C68.6908 57.5359 69.1962 57.0256 69.8005 56.6559C73.4633 54.4156 83.3438 49.4832 95.9527 52.0688C96.8381 52.2515 97.6456 52.7016 98.2655 53.3579C98.8853 54.0142 99.2874 54.8449 99.4171 55.737L99.7547 58.0942L67.462 64.6717Z" fill="#3F3D56"/>
<path d="M245.268 64.6717L212.975 58.0942L213.517 54.3072C213.58 53.86 213.775 53.4417 214.078 53.1061C214.381 52.7704 214.778 52.5328 215.217 52.4237C229.758 48.7855 240.889 55.2464 243.954 57.3133C244.245 57.5102 244.486 57.7711 244.66 58.0759C244.834 58.3806 244.935 58.7211 244.955 59.071L245.268 64.6717Z" fill="#3F3D56"/>
<path d="M57.2087 204.856C56.4305 204.865 55.6662 204.65 55.0064 204.239C46.3598 199.205 40.9692 189.98 38.9966 176.829C37.3672 165.965 38.0476 152.329 41.0189 136.3C46.2868 107.882 57.3277 79.4766 61.8302 68.583C62.4267 67.1451 63.3535 65.867 64.5362 64.8517C65.7188 63.8364 67.1241 63.1121 68.6389 62.7374C77.9209 60.4613 94.1244 56.6429 98.356 56.6429C104.155 56.6429 107.293 62.0854 107.324 62.1404L107.341 62.1853L112.434 84.2027V84.5204C115.244 93.9977 113.156 100.844 110.909 104.919C108.469 109.341 105.313 111.549 105.281 111.571C100.325 115.333 92.2497 127.452 84.2131 143.194C75.8616 159.554 69.6706 175.696 67.6525 186.376C65.1823 199.447 61.5612 203.449 58.9585 204.504C58.4038 204.734 57.8094 204.853 57.2087 204.856Z" fill="#E6E6E6"/>
<path d="M183.521 103.992H128.708C125.473 103.987 122.339 102.863 119.843 100.811C117.347 98.7595 115.643 95.9074 115.021 92.7421L109.023 61.9532C108.89 61.2717 108.898 60.5702 109.047 59.892C109.197 59.2138 109.484 58.5734 109.891 58.0102C110.299 57.447 110.818 56.9731 111.416 56.6177C112.014 56.2623 112.679 56.033 113.37 55.9438C142.281 52.2614 170.908 52.2551 198.458 55.9247C199.139 56.0171 199.794 56.2461 200.384 56.5977C200.974 56.9494 201.486 57.4165 201.89 57.971C202.294 58.5254 202.581 59.1556 202.734 59.8236C202.887 60.4916 202.903 61.1836 202.78 61.8578L197.243 92.5522C196.666 95.7614 194.975 98.6661 192.467 100.758C189.958 102.849 186.791 103.994 183.521 103.992Z" fill="#E6E6E6"/>
<path d="M255.522 204.857C254.921 204.854 254.326 204.734 253.771 204.504C251.168 203.449 247.547 199.447 245.077 186.376C243.059 175.696 236.868 159.554 228.517 143.194C220.48 127.452 212.405 115.333 207.442 111.567C207.417 111.549 204.26 109.341 201.821 104.919C199.573 100.844 197.486 93.9977 200.295 84.5204L200.3 84.1647L205.394 62.1616L205.406 62.1404C205.437 62.0854 208.574 56.6429 214.374 56.6429C218.605 56.6429 234.809 60.4613 244.091 62.7374C245.605 63.1123 247.011 63.8365 248.193 64.8518C249.376 65.8672 250.303 67.1452 250.899 68.583C255.402 79.4766 266.443 107.882 271.711 136.3C274.682 152.329 275.362 165.965 273.733 176.829C271.76 189.98 266.37 199.205 257.711 204.246C257.055 204.654 256.295 204.865 255.522 204.857Z" fill="#E6E6E6"/>
<path d="M119.049 141.025C126.356 141.025 132.279 135.12 132.279 127.835C132.279 120.55 126.356 114.645 119.049 114.645C111.742 114.645 105.819 120.55 105.819 127.835C105.819 135.12 111.742 141.025 119.049 141.025Z" fill="#3F3D56"/>
<path d="M119.049 136.628C123.92 136.628 127.869 132.691 127.869 127.835C127.869 122.979 123.92 119.042 119.049 119.042C114.178 119.042 110.229 122.979 110.229 127.835C110.229 132.691 114.178 136.628 119.049 136.628Z" fill="#2F2E41"/>
<path d="M193.002 141.025C200.309 141.025 206.232 135.12 206.232 127.835C206.232 120.55 200.309 114.645 193.002 114.645C185.695 114.645 179.772 120.55 179.772 127.835C179.772 135.12 185.695 141.025 193.002 141.025Z" fill="#3F3D56"/>
<path d="M193.002 136.628C197.873 136.628 201.822 132.691 201.822 127.835C201.822 122.979 197.873 119.042 193.002 119.042C188.131 119.042 184.182 122.979 184.182 127.835C184.182 132.691 188.131 136.628 193.002 136.628Z" fill="#2F2E41"/>
<path d="M147.884 111.939C148.446 111.939 148.902 111.485 148.902 110.925C148.902 110.364 148.446 109.91 147.884 109.91C147.322 109.91 146.866 110.364 146.866 110.925C146.866 111.485 147.322 111.939 147.884 111.939Z" fill="#2F2E41"/>
<path d="M152.294 111.939C152.856 111.939 153.312 111.485 153.312 110.925C153.312 110.364 152.856 109.91 152.294 109.91C151.732 109.91 151.276 110.364 151.276 110.925C151.276 111.485 151.732 111.939 152.294 111.939Z" fill="#2F2E41"/>
<path d="M150.259 115.66C150.821 115.66 151.276 115.205 151.276 114.645C151.276 114.085 150.821 113.63 150.259 113.63C149.697 113.63 149.241 114.085 149.241 114.645C149.241 115.205 149.697 115.66 150.259 115.66Z" fill="#2F2E41"/>
<path d="M154.329 115.66C154.891 115.66 155.347 115.205 155.347 114.645C155.347 114.085 154.891 113.63 154.329 113.63C153.767 113.63 153.312 114.085 153.312 114.645C153.312 115.205 153.767 115.66 154.329 115.66Z" fill="#2F2E41"/>
<path d="M158.4 115.66C158.962 115.66 159.418 115.205 159.418 114.645C159.418 114.085 158.962 113.63 158.4 113.63C157.838 113.63 157.382 114.085 157.382 114.645C157.382 115.205 157.838 115.66 158.4 115.66Z" fill="#2F2E41"/>
<path d="M162.471 115.66C163.033 115.66 163.489 115.205 163.489 114.645C163.489 114.085 163.033 113.63 162.471 113.63C161.909 113.63 161.453 114.085 161.453 114.645C161.453 115.205 161.909 115.66 162.471 115.66Z" fill="#2F2E41"/>
<path d="M156.704 111.939C157.266 111.939 157.722 111.485 157.722 110.925C157.722 110.364 157.266 109.91 156.704 109.91C156.142 109.91 155.686 110.364 155.686 110.925C155.686 111.485 156.142 111.939 156.704 111.939Z" fill="#2F2E41"/>
<path d="M161.114 111.939C161.676 111.939 162.132 111.485 162.132 110.925C162.132 110.364 161.676 109.91 161.114 109.91C160.552 109.91 160.096 110.364 160.096 110.925C160.096 111.485 160.552 111.939 161.114 111.939Z" fill="#2F2E41"/>
<path d="M165.524 111.939C166.086 111.939 166.542 111.485 166.542 110.925C166.542 110.364 166.086 109.91 165.524 109.91C164.962 109.91 164.506 110.364 164.506 110.925C164.506 111.485 164.962 111.939 165.524 111.939Z" fill="#2F2E41"/>
<path d="M160.775 142.209H151.955C151.55 142.209 151.162 142.048 150.875 141.763C150.589 141.478 150.428 141.09 150.428 140.687C150.428 140.283 150.589 139.896 150.875 139.611C151.162 139.325 151.55 139.165 151.955 139.165H160.775C161.18 139.165 161.568 139.325 161.854 139.611C162.141 139.896 162.301 140.283 162.301 140.687C162.301 141.09 162.141 141.478 161.854 141.763C161.568 142.048 161.18 142.209 160.775 142.209Z" fill="#2F2E41"/>
<path d="M102.374 76.0512C101.805 76.0497 101.252 75.8569 100.807 75.5041C100.361 75.1513 100.047 74.659 99.9164 74.1067L98.5637 68.3815C98.4107 67.7307 98.523 67.046 98.8761 66.4778C99.2291 65.9095 99.794 65.5043 100.447 65.351C101.099 65.1978 101.786 65.3091 102.356 65.6604C102.927 66.0118 103.334 66.5746 103.488 67.225L104.841 72.9502C104.928 73.3209 104.93 73.7063 104.846 74.0777C104.763 74.4491 104.596 74.797 104.359 75.0952C104.122 75.3934 103.82 75.6343 103.476 75.7998C103.132 75.9654 102.756 76.0513 102.374 76.0512Z" fill="#3F3D56"/>
<path d="M210.695 75.713C210.313 75.7131 209.936 75.6271 209.593 75.4616C209.249 75.296 208.947 75.0551 208.71 74.7569C208.473 74.4587 208.306 74.1109 208.223 73.7395C208.139 73.368 208.141 72.9826 208.228 72.612L209.581 66.8868C209.735 66.2363 210.142 65.6736 210.712 65.3222C211.283 64.9708 211.97 64.8595 212.622 65.0127C213.275 65.166 213.84 65.5713 214.193 66.1395C214.546 66.7078 214.658 67.3925 214.505 68.0432L213.152 73.7685C213.022 74.3208 212.708 74.8131 212.262 75.1659C211.816 75.5187 211.264 75.7114 210.695 75.713Z" fill="#3F3D56"/>
<path d="M83.7109 92.9504C82.8784 92.9506 82.0661 92.6951 81.3844 92.2187L78.5452 90.2372C78.011 89.864 77.5748 89.3681 77.2736 88.7913C76.9724 88.2146 76.815 87.5739 76.8147 86.9236V80.8551C76.8161 79.6365 77.3023 78.4682 78.1666 77.6066C79.0309 76.7449 80.2027 76.2602 81.425 76.2588H85.7737C86.996 76.2602 88.1679 76.7449 89.0322 77.6066C89.8965 78.4682 90.3826 79.6365 90.384 80.8551V86.9833C90.3828 87.6167 90.2329 88.2411 89.9463 88.8065C89.6598 89.3718 89.2444 89.8625 88.7336 90.2392L86.1173 92.1612C85.4204 92.674 84.577 92.9506 83.7109 92.9504Z" fill="#3F3D56"/>
<path d="M85.7737 115.152H81.425C80.2027 115.151 79.0309 114.666 78.1666 113.805C77.3023 112.943 76.8161 111.775 76.8147 110.556V104.488C76.815 103.837 76.9724 103.197 77.2736 102.62C77.5748 102.043 78.011 101.547 78.5452 101.174L81.3844 99.1925C82.0799 98.7066 82.9109 98.4508 83.7601 98.4611C84.6093 98.4714 85.4339 98.7474 86.1173 99.25L88.7336 101.172C89.2444 101.549 89.6597 102.039 89.9463 102.605C90.2329 103.17 90.3828 103.794 90.384 104.428V110.556C90.3826 111.775 89.8965 112.943 89.0322 113.805C88.1679 114.666 86.996 115.151 85.7737 115.152Z" fill="#3F3D56"/>
<path d="M99.3431 102.47H93.2561C92.6038 102.469 91.9612 102.313 91.3827 102.012C90.8042 101.712 90.3067 101.277 89.9325 100.745L87.945 97.9139C87.4576 97.2205 87.2009 96.392 87.2113 95.5453C87.2216 94.6987 87.4984 93.8767 88.0026 93.1953L89.9305 90.587C90.3083 90.0777 90.8005 89.6636 91.3675 89.3779C91.9346 89.0922 92.5609 88.9427 93.1963 88.9415H99.3431C100.565 88.9429 101.737 89.4276 102.601 90.2893C103.466 91.151 103.952 92.3193 103.953 93.5379V97.8734C103.952 99.092 103.466 100.26 102.601 101.122C101.737 101.984 100.565 102.468 99.3431 102.47Z" fill="#3F3D56"/>
<path d="M73.6034 102.47H67.5165C66.2942 102.468 65.1223 101.984 64.258 101.122C63.3938 100.26 62.9076 99.092 62.9062 97.8734V93.5379C62.9076 92.3193 63.3937 91.151 64.258 90.2893C65.1223 89.4276 66.2942 88.9429 67.5165 88.9415H73.6632C74.2986 88.9427 74.9249 89.0922 75.492 89.3779C76.0591 89.6636 76.5512 90.0777 76.929 90.587L78.8569 93.1953C79.3611 93.8767 79.6379 94.6987 79.6483 95.5453C79.6586 96.392 79.402 97.2205 78.9146 97.9139L76.927 100.745C76.5528 101.277 76.0553 101.712 75.4768 102.012C74.8983 102.313 74.2557 102.469 73.6034 102.47Z" fill="#3F3D56"/>
<path d="M229.3 86.2359C233.609 86.2359 237.102 82.7532 237.102 78.4572C237.102 74.1611 233.609 70.6785 229.3 70.6785C224.991 70.6785 221.497 74.1611 221.497 78.4572C221.497 82.7532 224.991 86.2359 229.3 86.2359Z" fill="#3F3D56"/>
<path d="M246.601 104.161C250.91 104.161 254.403 100.678 254.403 96.382C254.403 92.0859 250.91 88.6033 246.601 88.6033C242.292 88.6033 238.798 92.0859 238.798 96.382C238.798 100.678 242.292 104.161 246.601 104.161Z" fill="#3F3D56"/>
<path d="M229.3 121.071C233.609 121.071 237.102 117.588 237.102 113.292C237.102 108.996 233.609 105.514 229.3 105.514C224.991 105.514 221.497 108.996 221.497 113.292C221.497 117.588 224.991 121.071 229.3 121.071Z" fill="#3F3D56"/>
<path d="M211.999 103.822C216.308 103.822 219.801 100.34 219.801 96.0437C219.801 91.7477 216.308 88.265 211.999 88.265C207.69 88.265 204.197 91.7477 204.197 96.0437C204.197 100.34 207.69 103.822 211.999 103.822Z" fill="#3F3D56"/>
<path d="M246.601 101.455C245.594 101.455 244.61 101.158 243.774 100.6C242.937 100.043 242.285 99.2504 241.9 98.3234C241.514 97.3964 241.414 96.3764 241.61 95.3923C241.806 94.4082 242.291 93.5043 243.003 92.7948C243.714 92.0853 244.621 91.6022 245.608 91.4064C246.595 91.2107 247.618 91.3112 248.548 91.6951C249.478 92.0791 250.272 92.7293 250.832 93.5636C251.391 94.3978 251.689 95.3787 251.689 96.382C251.688 97.727 251.151 99.0165 250.197 99.9676C249.243 100.919 247.95 101.454 246.601 101.455ZM246.601 91.9854C245.728 91.9854 244.876 92.2432 244.151 92.7263C243.425 93.2095 242.86 93.8961 242.526 94.6995C242.193 95.5029 242.105 96.3869 242.275 97.2398C242.446 98.0927 242.866 98.8761 243.482 99.4909C244.099 100.106 244.885 100.525 245.74 100.694C246.596 100.864 247.483 100.777 248.288 100.444C249.094 100.111 249.783 99.5477 250.268 98.8247C250.752 98.1017 251.011 97.2516 251.011 96.382C251.009 95.2164 250.544 94.0988 249.718 93.2745C248.891 92.4503 247.77 91.9867 246.601 91.9854Z" fill="#E6E6E6"/>
<path d="M234.752 82.2314L224.526 82.0872L229.764 73.3301L234.752 82.2314ZM225.711 81.4273L233.587 81.5385L229.745 74.6829L225.711 81.4273Z" fill="#E6E6E6"/>
<path d="M216.07 100.102H207.928V91.9854H216.07V100.102ZM208.607 99.4259H215.391V92.6618H208.607V99.4259Z" fill="#E6E6E6"/>
<path d="M233.51 116.785L229.78 113.073L233.069 109.8L232.59 109.321L229.3 112.595L226.01 109.321L225.53 109.8L228.82 113.073L225.09 116.785L225.569 117.263L229.3 113.551L233.031 117.263L233.51 116.785Z" fill="#E6E6E6"/>
<path d="M83.6995 24.9729C82.6931 24.9729 81.7093 24.6754 80.8725 24.118C80.0357 23.5605 79.3835 22.7682 78.9984 21.8412C78.6133 20.9143 78.5125 19.8942 78.7088 18.9102C78.9052 17.9261 79.3898 17.0221 80.1014 16.3127C80.8131 15.6032 81.7198 15.12 82.7068 14.9243C83.6939 14.7285 84.717 14.829 85.6468 15.213C86.5766 15.5969 87.3713 16.2471 87.9305 17.0814C88.4896 17.9157 88.788 18.8965 88.788 19.8999C88.7865 21.2449 88.2499 22.5343 87.296 23.4854C86.342 24.4364 85.0486 24.9714 83.6995 24.9729ZM83.6995 15.5032C82.8273 15.5032 81.9747 15.7611 81.2495 16.2442C80.5242 16.7273 79.959 17.4139 79.6252 18.2173C79.2914 19.0207 79.2041 19.9047 79.3743 20.7576C79.5444 21.6105 79.9644 22.3939 80.5812 23.0088C81.1979 23.6236 81.9837 24.0424 82.8392 24.212C83.6947 24.3817 84.5814 24.2946 85.3872 23.9618C86.193 23.6291 86.8818 23.0655 87.3663 22.3425C87.8509 21.6195 88.1096 20.7694 88.1096 19.8999C88.1083 18.7342 87.6432 17.6166 86.8165 16.7924C85.9897 15.9681 84.8688 15.5045 83.6995 15.5032Z" fill="#E6E6E6"/>
<path d="M72.1902 16.5719L61.9641 16.4277L67.2025 7.67053L72.1902 16.5719ZM63.1488 15.7678L71.0247 15.8789L67.1833 9.02335L63.1488 15.7678Z" fill="#E6E6E6"/>
<path d="M57.1392 28.9101H48.9977V20.7932H57.1392V28.9101ZM49.6761 28.2337H56.4608V21.4696H49.6761V28.2337Z" fill="#E6E6E6"/>
<path d="M64.5027 44.0225L60.7728 40.311L64.062 37.0382L63.5827 36.5593L60.2925 39.8331L57.0023 36.5593L56.5229 37.0382L59.8121 40.311L56.0823 44.0225L56.5616 44.5014L60.2925 40.7889L64.0234 44.5014L64.5027 44.0225Z" fill="#E6E6E6"/>
<path opacity="0.2" d="M294.263 116.505L281.096 126.385L295.959 119.887L294.263 116.505Z" fill="black"/>
<path d="M50.6939 128.681L34.0715 129.357L32.0361 118.196L46.2839 113.8L50.6939 128.681Z" fill="#A0616A"/>
<path d="M44.5825 101.328L40.875 97.5642L45.4209 90.6344L53.2015 77.7222C52.9473 77.1659 52.8685 76.5458 52.9754 75.9439C53.0824 75.342 53.3701 74.7867 53.8006 74.3513C54.231 73.916 54.7839 73.6212 55.386 73.5059C55.9881 73.3907 56.6112 73.4604 57.1727 73.7058C57.7343 73.9513 58.2078 74.3609 58.5308 74.8805C58.8537 75.4001 59.0108 76.0052 58.9813 76.6158C58.9518 77.2264 58.7371 77.8136 58.3655 78.2999C57.994 78.7861 57.4831 79.1485 56.9005 79.3389L50.4783 93.1239L44.5825 101.328Z" fill="#A0616A"/>
<path d="M40.4755 109.92C40.0402 110.592 39.4199 111.125 38.6889 111.455C37.9579 111.785 37.147 111.898 36.3532 111.781C35.5976 111.692 34.8845 111.385 34.3014 110.898C33.7184 110.411 33.2907 109.764 33.071 109.038C32.9092 108.523 32.862 107.978 32.9329 107.443C33.0038 106.907 33.191 106.394 33.4814 105.938C35.9616 101.769 40.536 96.2644 40.5819 96.2094L40.6547 96.1218L48.37 97.7883L40.4755 109.92Z" fill="#6C63FF"/>
<path d="M46.732 202.169L51.3418 202.169L53.5346 184.442L46.731 184.442L46.732 202.169Z" fill="#A0616A"/>
<path d="M45.556 200.669L54.6345 200.669H54.6348C56.1692 200.669 57.6407 201.276 58.7257 202.358C59.8107 203.44 60.4203 204.907 60.4204 206.436V206.624L45.5562 206.624L45.556 200.669Z" fill="#2F2E41"/>
<path d="M10.8378 200.18L15.3957 200.867L20.2223 183.666L14.2471 182.652L10.8378 200.18Z" fill="#A0616A"/>
<path d="M9.90009 198.521L18.8766 199.874L18.877 199.874C20.3941 200.102 21.758 200.923 22.6686 202.154C23.5792 203.385 23.9619 204.927 23.7327 206.439L23.7046 206.624L9.00737 204.41L9.90009 198.521Z" fill="#2F2E41"/>
<path d="M33.393 125.975L49.3369 123.269L54.2702 133.407L54.4582 199.573L45.7076 199.518L42.0497 145.966L18.7368 195.449L9.33646 194.325L29.8292 141.28C29.8292 141.28 28.7012 131.908 32.2733 127.222L33.393 125.975Z" fill="#2F2E41"/>
<path d="M27.4739 106.001C27.2302 105.271 27.2043 104.486 27.3994 103.742C27.5944 102.998 28.002 102.326 28.5727 101.809L30.8386 99.7554L37.2267 98.6824L41.2209 97.9586L47.6407 116.505L32.0485 123.647C30.6802 123.353 30.1336 122.606 30.9298 121.122L27.4739 106.001Z" fill="#6C63FF"/>
<path d="M41.7837 112.259L46.244 109.421L52.1042 115.289L63.1662 125.549C63.7646 125.416 64.3895 125.467 64.958 125.696C65.5266 125.925 66.012 126.321 66.3502 126.83C66.6884 127.34 66.8633 127.941 66.8519 128.552C66.8404 129.163 66.6432 129.756 66.2861 130.253C65.9291 130.75 65.4292 131.127 64.8525 131.335C64.2757 131.542 63.6494 131.571 63.0563 131.415C62.4633 131.26 61.9314 130.929 61.531 130.466C61.1307 130.003 60.8808 129.43 60.8144 128.822L48.615 119.707L41.7837 112.259Z" fill="#A0616A"/>
<path d="M34.2014 106.475C33.6319 105.912 33.2373 105.197 33.0647 104.415C32.8921 103.634 32.9488 102.82 33.228 102.07C33.4718 101.351 33.9206 100.719 34.5193 100.251C35.1181 99.7836 35.8407 99.5001 36.5987 99.4357C37.138 99.3845 37.682 99.4511 38.1928 99.631C38.7035 99.8109 39.1688 100.1 39.5561 100.477C43.1337 103.759 47.5898 109.359 47.6343 109.415L47.7051 109.505L44.4737 116.685L34.2014 106.475Z" fill="#6C63FF"/>
<path d="M34.4232 96.4261C38.2959 96.4261 41.4354 93.2961 41.4354 89.4351C41.4354 85.5741 38.2959 82.4441 34.4232 82.4441C30.5504 82.4441 27.4109 85.5741 27.4109 89.4351C27.4109 93.2961 30.5504 96.4261 34.4232 96.4261Z" fill="#A0616A"/>
<path d="M28.7459 99.3945C27.6585 99.3943 26.5721 99.3283 25.4927 99.1968L25.3447 99.1788L24.2152 93.0653C23.7362 90.4738 24.2703 87.7977 25.7079 85.5863C27.1456 83.3749 29.3777 81.7961 31.9462 81.1738C32.1176 81.1305 32.2976 81.1352 32.4665 81.1873C32.6354 81.2394 32.7866 81.337 32.9035 81.4692L33.1729 81.3756C34.2042 81.017 35.2963 80.8645 36.3868 80.9268C37.4773 80.989 38.5449 81.2647 39.5285 81.7383C40.512 82.2118 41.3925 82.8739 42.1194 83.6867C42.8464 84.4994 43.4056 85.447 43.7652 86.4753L43.832 86.6663L42.0343 87.2912C41.4742 87.4859 40.9646 87.8027 40.5427 88.2185C40.1208 88.6342 39.7972 89.1385 39.5953 89.6946C39.3935 90.2508 39.3185 90.8448 39.3759 91.4334C39.4333 92.022 39.6215 92.5905 39.927 93.0975L41.765 96.1481L41.5693 96.2459C37.6023 98.2851 33.2091 99.3638 28.7459 99.3945Z" fill="#2F2E41"/>
<path d="M269.655 128.65C269.736 128.259 269.902 127.89 270.142 127.57C270.381 127.251 270.688 126.987 271.04 126.798C271.393 126.609 271.783 126.5 272.183 126.477C272.582 126.455 272.982 126.52 273.354 126.668L279.732 119.34L281.096 124.195L274.83 130.41C274.539 131.016 274.035 131.494 273.413 131.754C272.792 132.014 272.096 132.038 271.458 131.821C270.821 131.604 270.285 131.162 269.952 130.577C269.62 129.992 269.514 129.307 269.655 128.65Z" fill="#FFB6B6"/>
<path d="M298.114 96.4324L300.726 96.2915L301.12 97.9473C301.12 97.9473 301.081 100.067 298.699 104.474C296.317 108.881 277.858 128.502 277.858 128.502L273.861 123.979L283.741 113.833L289.725 103.199L298.114 96.4324Z" fill="#6C63FF"/>
<path d="M0.423026 207H310.577C310.689 207 310.797 206.956 310.876 206.876C310.955 206.797 311 206.69 311 206.578C311 206.466 310.955 206.359 310.876 206.28C310.797 206.201 310.689 206.156 310.577 206.156H0.423026C0.310834 206.156 0.203237 206.201 0.123905 206.28C0.0445724 206.359 0 206.466 0 206.578C0 206.69 0.0445724 206.797 0.123905 206.876C0.203237 206.956 0.310834 207 0.423026 207Z" fill="#CCCCCC"/>
</g>
<defs>
<clipPath id="clip0_130_77">
<rect width="311" height="207" fill="white"/>
</clipPath>
</defs>
</svg>
