<svg width="304" height="221" viewBox="0 0 304 221" fill="none" xmlns="http://www.w3.org/2000/svg">
<g clip-path="url(#clip0_130_192)">
<path d="M177.08 38.9597C182.777 38.9597 187.396 34.3431 187.396 28.6482C187.396 22.9532 182.777 18.3366 177.08 18.3366C171.382 18.3366 166.763 22.9532 166.763 28.6482C166.763 34.3431 171.382 38.9597 177.08 38.9597Z" fill="#F2F2F2"/>
<path d="M257.106 191.995C272.44 180.321 279.764 160.704 275.179 141.99C275.065 141.525 274.944 141.061 274.818 140.598C271.778 129.49 264.258 118.933 253.297 115.384C244.094 112.403 234.049 114.695 224.448 113.51C205.6 111.184 190.988 95.9407 180.707 79.9813C170.425 64.0218 162.524 46.1575 148.862 32.9727C126.343 11.2397 89.6083 6.56059 61.6877 20.7071C33.7671 34.8537 15.982 66.239 16.7404 97.5184C17.499 128.798 36.0766 158.703 63.056 174.57C72.9671 180.399 84.4302 184.528 95.8384 183.083C105.737 181.829 114.731 176.513 124.583 174.934C140.073 172.453 155.464 179.453 168.862 187.611C182.259 195.768 195.201 205.437 210.425 209.219C225.208 212.891 243.522 202.336 257.106 191.995Z" fill="#F2F2F2"/>
<path d="M235.075 21.364C234.739 21.14 234.399 20.9276 234.062 20.7114C224.346 14.4998 213.931 9.45358 203.033 5.67699L200.507 40.519H184.488V0.59087C183.479 0.382327 182.463 0.185371 181.447 0V40.519H162.411C151.931 40.519 141.881 36.3579 134.471 28.951C127.06 21.5442 122.897 11.4983 122.897 1.02345C121.877 1.24358 120.865 1.47912 119.853 1.73014V40.519H104.348L101.941 7.29513C90.742 11.5881 80.1102 17.2336 70.2821 24.106C70.1121 24.2218 69.9421 24.3415 69.776 24.4574C68.9221 25.056 68.0799 25.6662 67.2415 26.2841V159.207H112.937L112.129 148.026L107.686 86.6416H197.165L192.721 148.026L191.914 159.207H237.103V22.708C236.431 22.2523 235.755 21.8043 235.075 21.364ZM119.853 76.5042H106.952L104.568 43.5622H119.853V76.5042ZM181.447 76.5042H159.78V75.8515C159.78 75.5378 159.718 75.2271 159.598 74.9373C159.478 74.6474 159.301 74.3842 159.079 74.1625C158.857 73.9408 158.593 73.7651 158.303 73.6454C158.013 73.5257 157.702 73.4643 157.388 73.4649H147.969C147.655 73.4647 147.345 73.5264 147.055 73.6463C146.765 73.7662 146.502 73.942 146.28 74.1636C146.058 74.3853 145.882 74.6484 145.762 74.938C145.642 75.2276 145.581 75.538 145.581 75.8515V76.5042H122.897V43.5622H181.447V76.5042ZM184.488 76.5042V43.5622H200.286L197.903 76.5042H184.488Z" fill="#3F3D56"/>
<path d="M0 167.719C3.35645 171.694 6.98684 175.43 10.8646 178.899L293.135 179.285C297.013 175.816 300.644 172.08 304 168.105L0 167.719Z" fill="#3F3D56"/>
<path d="M191.417 131.919V165.017C191.417 165.439 191.585 165.843 191.883 166.141C192.182 166.44 192.586 166.607 193.008 166.608H242.079C242.501 166.607 242.905 166.44 243.204 166.141C243.502 165.843 243.67 165.439 243.67 165.017V131.919C243.669 131.498 243.501 131.094 243.203 130.796C242.904 130.498 242.5 130.331 242.079 130.33H193.008C192.587 130.331 192.183 130.498 191.884 130.796C191.586 131.094 191.418 131.498 191.417 131.919Z" fill="#3F3D56"/>
<path d="M192.568 132.331V164.609C192.569 164.834 192.658 165.05 192.818 165.209C192.977 165.369 193.193 165.458 193.419 165.459H241.67C241.896 165.458 242.112 165.369 242.271 165.209C242.431 165.05 242.52 164.834 242.521 164.609V132.331C242.521 132.105 242.431 131.889 242.272 131.729C242.112 131.569 241.896 131.479 241.67 131.479H193.419C193.193 131.479 192.977 131.569 192.817 131.729C192.658 131.889 192.568 132.105 192.568 132.331Z" fill="#6C63FF"/>
<path d="M190.391 171.472C190.481 171.585 190.595 171.675 190.725 171.738C190.855 171.8 190.997 171.832 191.142 171.831H243.684C243.828 171.831 243.97 171.799 244.099 171.737C244.229 171.675 244.343 171.585 244.434 171.473C244.524 171.362 244.589 171.232 244.623 171.092C244.656 170.952 244.659 170.807 244.629 170.666L243.814 166.794C243.78 166.636 243.707 166.489 243.602 166.367C243.497 166.244 243.363 166.15 243.212 166.092C243.102 166.049 242.986 166.027 242.869 166.027H191.954C191.837 166.027 191.72 166.049 191.611 166.092C191.46 166.15 191.326 166.244 191.221 166.367C191.115 166.489 191.043 166.636 191.009 166.794L190.193 170.666C190.164 170.807 190.167 170.952 190.201 171.092C190.235 171.231 190.3 171.361 190.391 171.472Z" fill="#2F2E41"/>
<path d="M241.066 167.695H242.307C242.411 167.695 242.495 167.611 242.495 167.507V166.913C242.495 166.809 242.411 166.725 242.307 166.725H241.066C240.962 166.725 240.877 166.809 240.877 166.913V167.507C240.877 167.611 240.962 167.695 241.066 167.695Z" fill="#3F3D56"/>
<path d="M237.829 167.695H239.07C239.174 167.695 239.259 167.611 239.259 167.507V166.913C239.259 166.809 239.174 166.725 239.07 166.725H237.829C237.725 166.725 237.641 166.809 237.641 166.913V167.507C237.641 167.611 237.725 167.695 237.829 167.695Z" fill="#3F3D56"/>
<path d="M234.593 167.695H235.834C235.938 167.695 236.022 167.611 236.022 167.507V166.913C236.022 166.809 235.938 166.725 235.834 166.725H234.593C234.488 166.725 234.404 166.809 234.404 166.913V167.507C234.404 167.611 234.488 167.695 234.593 167.695Z" fill="#3F3D56"/>
<path d="M231.356 167.695H232.597C232.701 167.695 232.786 167.611 232.786 167.507V166.913C232.786 166.809 232.701 166.725 232.597 166.725H231.356C231.252 166.725 231.167 166.809 231.167 166.913V167.507C231.167 167.611 231.252 167.695 231.356 167.695Z" fill="#3F3D56"/>
<path d="M228.119 167.695H229.36C229.465 167.695 229.549 167.611 229.549 167.507V166.913C229.549 166.809 229.465 166.725 229.36 166.725H228.119C228.015 166.725 227.931 166.809 227.931 166.913V167.507C227.931 167.611 228.015 167.695 228.119 167.695Z" fill="#3F3D56"/>
<path d="M224.883 167.695H226.124C226.228 167.695 226.313 167.611 226.313 167.507V166.913C226.313 166.809 226.228 166.725 226.124 166.725H224.883C224.779 166.725 224.694 166.809 224.694 166.913V167.507C224.694 167.611 224.779 167.695 224.883 167.695Z" fill="#3F3D56"/>
<path d="M221.646 167.695H222.887C222.991 167.695 223.076 167.611 223.076 167.507V166.913C223.076 166.809 222.991 166.725 222.887 166.725H221.646C221.542 166.725 221.458 166.809 221.458 166.913V167.507C221.458 167.611 221.542 167.695 221.646 167.695Z" fill="#3F3D56"/>
<path d="M218.41 167.695H219.651C219.755 167.695 219.839 167.611 219.839 167.507V166.913C219.839 166.809 219.755 166.725 219.651 166.725H218.41C218.306 166.725 218.221 166.809 218.221 166.913V167.507C218.221 167.611 218.306 167.695 218.41 167.695Z" fill="#3F3D56"/>
<path d="M215.173 167.695H216.414C216.518 167.695 216.603 167.611 216.603 167.507V166.913C216.603 166.809 216.518 166.725 216.414 166.725H215.173C215.069 166.725 214.985 166.809 214.985 166.913V167.507C214.985 167.611 215.069 167.695 215.173 167.695Z" fill="#3F3D56"/>
<path d="M211.937 167.695H213.178C213.282 167.695 213.366 167.611 213.366 167.507V166.913C213.366 166.809 213.282 166.725 213.178 166.725H211.937C211.832 166.725 211.748 166.809 211.748 166.913V167.507C211.748 167.611 211.832 167.695 211.937 167.695Z" fill="#3F3D56"/>
<path d="M208.7 167.695H209.941C210.045 167.695 210.13 167.611 210.13 167.507V166.913C210.13 166.809 210.045 166.725 209.941 166.725H208.7C208.596 166.725 208.511 166.809 208.511 166.913V167.507C208.511 167.611 208.596 167.695 208.7 167.695Z" fill="#3F3D56"/>
<path d="M205.463 167.695H206.704C206.809 167.695 206.893 167.611 206.893 167.507V166.913C206.893 166.809 206.809 166.725 206.704 166.725H205.463C205.359 166.725 205.275 166.809 205.275 166.913V167.507C205.275 167.611 205.359 167.695 205.463 167.695Z" fill="#3F3D56"/>
<path d="M202.227 167.695H203.468C203.572 167.695 203.656 167.611 203.656 167.507V166.913C203.656 166.809 203.572 166.725 203.468 166.725H202.227C202.123 166.725 202.038 166.809 202.038 166.913V167.507C202.038 167.611 202.123 167.695 202.227 167.695Z" fill="#3F3D56"/>
<path d="M198.99 167.695H200.231C200.335 167.695 200.42 167.611 200.42 167.507V166.913C200.42 166.809 200.335 166.725 200.231 166.725H198.99C198.886 166.725 198.802 166.809 198.802 166.913V167.507C198.802 167.611 198.886 167.695 198.99 167.695Z" fill="#3F3D56"/>
<path d="M195.754 167.695H196.995C197.099 167.695 197.183 167.611 197.183 167.507V166.913C197.183 166.809 197.099 166.725 196.995 166.725H195.754C195.649 166.725 195.565 166.809 195.565 166.913V167.507C195.565 167.611 195.649 167.695 195.754 167.695Z" fill="#3F3D56"/>
<path d="M192.517 167.695H193.758C193.862 167.695 193.947 167.611 193.947 167.507V166.913C193.947 166.809 193.862 166.725 193.758 166.725H192.517C192.413 166.725 192.328 166.809 192.328 166.913V167.507C192.328 167.611 192.413 167.695 192.517 167.695Z" fill="#3F3D56"/>
<path d="M241.104 169.313H242.345C242.449 169.313 242.534 169.228 242.534 169.124V168.531C242.534 168.427 242.449 168.342 242.345 168.342H241.104C241 168.342 240.915 168.427 240.915 168.531V169.124C240.915 169.228 241 169.313 241.104 169.313Z" fill="#3F3D56"/>
<path d="M237.867 169.313H239.108C239.213 169.313 239.297 169.228 239.297 169.124V168.531C239.297 168.427 239.213 168.342 239.108 168.342H237.867C237.763 168.342 237.679 168.427 237.679 168.531V169.124C237.679 169.228 237.763 169.313 237.867 169.313Z" fill="#3F3D56"/>
<path d="M234.631 169.313H235.872C235.976 169.313 236.06 169.228 236.06 169.124V168.531C236.06 168.427 235.976 168.342 235.872 168.342H234.631C234.527 168.342 234.442 168.427 234.442 168.531V169.124C234.442 169.228 234.527 169.313 234.631 169.313Z" fill="#3F3D56"/>
<path d="M231.394 169.313H232.635C232.739 169.313 232.824 169.228 232.824 169.124V168.531C232.824 168.427 232.739 168.342 232.635 168.342H231.394C231.29 168.342 231.206 168.427 231.206 168.531V169.124C231.206 169.228 231.29 169.313 231.394 169.313Z" fill="#3F3D56"/>
<path d="M228.158 169.313H229.399C229.503 169.313 229.587 169.228 229.587 169.124V168.531C229.587 168.427 229.503 168.342 229.399 168.342H228.158C228.053 168.342 227.969 168.427 227.969 168.531V169.124C227.969 169.228 228.053 169.313 228.158 169.313Z" fill="#3F3D56"/>
<path d="M224.921 169.313H226.162C226.266 169.313 226.351 169.228 226.351 169.124V168.531C226.351 168.427 226.266 168.342 226.162 168.342H224.921C224.817 168.342 224.732 168.427 224.732 168.531V169.124C224.732 169.228 224.817 169.313 224.921 169.313Z" fill="#3F3D56"/>
<path d="M221.684 169.313H222.926C223.03 169.313 223.114 169.228 223.114 169.124V168.531C223.114 168.427 223.03 168.342 222.926 168.342H221.684C221.58 168.342 221.496 168.427 221.496 168.531V169.124C221.496 169.228 221.58 169.313 221.684 169.313Z" fill="#3F3D56"/>
<path d="M218.448 169.313H219.689C219.793 169.313 219.878 169.228 219.878 169.124V168.531C219.878 168.427 219.793 168.342 219.689 168.342H218.448C218.344 168.342 218.259 168.427 218.259 168.531V169.124C218.259 169.228 218.344 169.313 218.448 169.313Z" fill="#3F3D56"/>
<path d="M215.211 169.313H216.452C216.557 169.313 216.641 169.228 216.641 169.124V168.531C216.641 168.427 216.557 168.342 216.452 168.342H215.211C215.107 168.342 215.023 168.427 215.023 168.531V169.124C215.023 169.228 215.107 169.313 215.211 169.313Z" fill="#3F3D56"/>
<path d="M211.975 169.313H213.216C213.32 169.313 213.404 169.228 213.404 169.124V168.531C213.404 168.427 213.32 168.342 213.216 168.342H211.975C211.871 168.342 211.786 168.427 211.786 168.531V169.124C211.786 169.228 211.871 169.313 211.975 169.313Z" fill="#3F3D56"/>
<path d="M208.738 169.313H209.979C210.083 169.313 210.168 169.228 210.168 169.124V168.531C210.168 168.427 210.083 168.342 209.979 168.342H208.738C208.634 168.342 208.55 168.427 208.55 168.531V169.124C208.55 169.228 208.634 169.313 208.738 169.313Z" fill="#3F3D56"/>
<path d="M205.502 169.313H206.743C206.847 169.313 206.931 169.228 206.931 169.124V168.531C206.931 168.427 206.847 168.342 206.743 168.342H205.502C205.397 168.342 205.313 168.427 205.313 168.531V169.124C205.313 169.228 205.397 169.313 205.502 169.313Z" fill="#3F3D56"/>
<path d="M202.265 169.313H203.506C203.61 169.313 203.695 169.228 203.695 169.124V168.531C203.695 168.427 203.61 168.342 203.506 168.342H202.265C202.161 168.342 202.076 168.427 202.076 168.531V169.124C202.076 169.228 202.161 169.313 202.265 169.313Z" fill="#3F3D56"/>
<path d="M199.028 169.313H200.27C200.374 169.313 200.458 169.228 200.458 169.124V168.531C200.458 168.427 200.374 168.342 200.27 168.342H199.028C198.924 168.342 198.84 168.427 198.84 168.531V169.124C198.84 169.228 198.924 169.313 199.028 169.313Z" fill="#3F3D56"/>
<path d="M195.792 169.313H197.033C197.137 169.313 197.222 169.228 197.222 169.124V168.531C197.222 168.427 197.137 168.342 197.033 168.342H195.792C195.688 168.342 195.603 168.427 195.603 168.531V169.124C195.603 169.228 195.688 169.313 195.792 169.313Z" fill="#3F3D56"/>
<path d="M192.555 169.313H193.796C193.901 169.313 193.985 169.228 193.985 169.124V168.531C193.985 168.427 193.901 168.342 193.796 168.342H192.555C192.451 168.342 192.367 168.427 192.367 168.531V169.124C192.367 169.228 192.451 169.313 192.555 169.313Z" fill="#3F3D56"/>
<path d="M214.24 171.254H226.809C226.914 171.254 226.998 171.169 226.998 171.065V170.472C226.998 170.368 226.914 170.283 226.809 170.283H214.24C214.136 170.283 214.052 170.368 214.052 170.472V171.065C214.052 171.169 214.136 171.254 214.24 171.254Z" fill="#3F3D56"/>
<path d="M200.924 138.541H199.825C199.492 138.541 199.222 138.81 199.222 139.143C199.222 139.476 199.492 139.746 199.825 139.746H200.924C201.257 139.746 201.527 139.476 201.527 139.143C201.527 138.81 201.257 138.541 200.924 138.541Z" fill="white"/>
<path d="M213.49 138.541H212.391C212.058 138.541 211.788 138.81 211.788 139.143C211.788 139.476 212.058 139.746 212.391 139.746H213.49C213.823 139.746 214.093 139.476 214.093 139.143C214.093 138.81 213.823 138.541 213.49 138.541Z" fill="white"/>
<path d="M217.05 138.541H215.951C215.618 138.541 215.348 138.81 215.348 139.143C215.348 139.476 215.618 139.746 215.951 139.746H217.05C217.383 139.746 217.653 139.476 217.653 139.143C217.653 138.81 217.383 138.541 217.05 138.541Z" fill="white"/>
<path d="M210.072 138.44H203.243C202.91 138.44 202.64 138.71 202.64 139.043C202.64 139.376 202.91 139.646 203.243 139.646H210.072C210.405 139.646 210.675 139.376 210.675 139.043C210.675 138.71 210.405 138.44 210.072 138.44Z" fill="white"/>
<path d="M226.826 138.44H219.997C219.664 138.44 219.394 138.71 219.394 139.043C219.394 139.376 219.664 139.646 219.997 139.646H226.826C227.159 139.646 227.429 139.376 227.429 139.043C227.429 138.71 227.159 138.44 226.826 138.44Z" fill="white"/>
<path d="M204.275 141.262H203.176C202.843 141.262 202.573 141.532 202.573 141.865C202.573 142.198 202.843 142.468 203.176 142.468H204.275C204.608 142.468 204.878 142.198 204.878 141.865C204.878 141.532 204.608 141.262 204.275 141.262Z" fill="white"/>
<path d="M216.84 141.262H215.742C215.409 141.262 215.139 141.532 215.139 141.865C215.139 142.198 215.409 142.468 215.742 142.468H216.84C217.174 142.468 217.444 142.198 217.444 141.865C217.444 141.532 217.174 141.262 216.84 141.262Z" fill="white"/>
<path d="M220.401 141.262H219.302C218.969 141.262 218.699 141.532 218.699 141.865C218.699 142.198 218.969 142.468 219.302 142.468H220.401C220.734 142.468 221.004 142.198 221.004 141.865C221.004 141.532 220.734 141.262 220.401 141.262Z" fill="white"/>
<path d="M213.423 141.161H206.594C206.261 141.161 205.991 141.431 205.991 141.764C205.991 142.097 206.261 142.367 206.594 142.367H213.423C213.756 142.367 214.026 142.097 214.026 141.764C214.026 141.431 213.756 141.161 213.423 141.161Z" fill="white"/>
<path d="M230.177 141.161H223.348C223.015 141.161 222.745 141.431 222.745 141.764C222.745 142.097 223.015 142.367 223.348 142.367H230.177C230.51 142.367 230.78 142.097 230.78 141.764C230.78 141.431 230.51 141.161 230.177 141.161Z" fill="white"/>
<path d="M207.626 143.983H206.527C206.194 143.983 205.924 144.253 205.924 144.586C205.924 144.919 206.194 145.189 206.527 145.189H207.626C207.959 145.189 208.229 144.919 208.229 144.586C208.229 144.253 207.959 143.983 207.626 143.983Z" fill="white"/>
<path d="M220.191 143.983H219.093C218.76 143.983 218.49 144.253 218.49 144.586C218.49 144.919 218.76 145.189 219.093 145.189H220.191C220.524 145.189 220.794 144.919 220.794 144.586C220.794 144.253 220.524 143.983 220.191 143.983Z" fill="white"/>
<path d="M223.752 143.983H222.653C222.32 143.983 222.05 144.253 222.05 144.586C222.05 144.919 222.32 145.189 222.653 145.189H223.752C224.085 145.189 224.355 144.919 224.355 144.586C224.355 144.253 224.085 143.983 223.752 143.983Z" fill="white"/>
<path d="M216.773 143.883H209.945C209.612 143.883 209.342 144.153 209.342 144.486C209.342 144.819 209.612 145.088 209.945 145.088H216.773C217.107 145.088 217.377 144.819 217.377 144.486C217.377 144.153 217.107 143.883 216.773 143.883Z" fill="white"/>
<path d="M233.528 143.883H226.699C226.366 143.883 226.096 144.153 226.096 144.486C226.096 144.819 226.366 145.088 226.699 145.088H233.528C233.861 145.088 234.131 144.819 234.131 144.486C234.131 144.153 233.861 143.883 233.528 143.883Z" fill="white"/>
<path d="M210.976 146.705H209.878C209.545 146.705 209.275 146.974 209.275 147.307C209.275 147.64 209.545 147.91 209.878 147.91H210.976C211.31 147.91 211.58 147.64 211.58 147.307C211.58 146.974 211.31 146.705 210.976 146.705Z" fill="white"/>
<path d="M223.542 146.705H222.444C222.11 146.705 221.84 146.974 221.84 147.307C221.84 147.64 222.11 147.91 222.444 147.91H223.542C223.875 147.91 224.145 147.64 224.145 147.307C224.145 146.974 223.875 146.705 223.542 146.705Z" fill="white"/>
<path d="M227.103 146.705H226.004C225.671 146.705 225.401 146.974 225.401 147.307C225.401 147.64 225.671 147.91 226.004 147.91H227.103C227.436 147.91 227.706 147.64 227.706 147.307C227.706 146.974 227.436 146.705 227.103 146.705Z" fill="white"/>
<path d="M220.124 146.604H213.296C212.963 146.604 212.693 146.874 212.693 147.207C212.693 147.54 212.963 147.81 213.296 147.81H220.124C220.457 147.81 220.727 147.54 220.727 147.207C220.727 146.874 220.457 146.604 220.124 146.604Z" fill="white"/>
<path d="M213.49 157.526H212.391C212.058 157.526 211.788 157.796 211.788 158.129C211.788 158.462 212.058 158.732 212.391 158.732H213.49C213.823 158.732 214.093 158.462 214.093 158.129C214.093 157.796 213.823 157.526 213.49 157.526Z" fill="white"/>
<path d="M217.05 157.526H215.951C215.618 157.526 215.348 157.796 215.348 158.129C215.348 158.462 215.618 158.732 215.951 158.732H217.05C217.383 158.732 217.653 158.462 217.653 158.129C217.653 157.796 217.383 157.526 217.05 157.526Z" fill="white"/>
<path d="M226.826 157.626H219.997C219.664 157.626 219.394 157.896 219.394 158.229C219.394 158.562 219.664 158.832 219.997 158.832H226.826C227.159 158.832 227.429 158.562 227.429 158.229C227.429 157.896 227.159 157.626 226.826 157.626Z" fill="white"/>
<path d="M200.924 157.526H199.825C199.492 157.526 199.222 157.796 199.222 158.129C199.222 158.462 199.492 158.732 199.825 158.732H200.924C201.257 158.732 201.527 158.462 201.527 158.129C201.527 157.796 201.257 157.526 200.924 157.526Z" fill="white"/>
<path d="M210.072 157.626H203.243C202.91 157.626 202.64 157.896 202.64 158.229C202.64 158.562 202.91 158.832 203.243 158.832H210.072C210.405 158.832 210.675 158.562 210.675 158.229C210.675 157.896 210.405 157.626 210.072 157.626Z" fill="white"/>
<path d="M204.275 154.804H203.176C202.843 154.804 202.573 155.074 202.573 155.407C202.573 155.74 202.843 156.01 203.176 156.01H204.275C204.608 156.01 204.878 155.74 204.878 155.407C204.878 155.074 204.608 154.804 204.275 154.804Z" fill="white"/>
<path d="M216.84 154.804H215.742C215.409 154.804 215.139 155.074 215.139 155.407C215.139 155.74 215.409 156.01 215.742 156.01H216.84C217.174 156.01 217.444 155.74 217.444 155.407C217.444 155.074 217.174 154.804 216.84 154.804Z" fill="white"/>
<path d="M220.401 154.804H219.302C218.969 154.804 218.699 155.074 218.699 155.407C218.699 155.74 218.969 156.01 219.302 156.01H220.401C220.734 156.01 221.004 155.74 221.004 155.407C221.004 155.074 220.734 154.804 220.401 154.804Z" fill="white"/>
<path d="M213.423 154.905H206.594C206.261 154.905 205.991 155.175 205.991 155.508C205.991 155.841 206.261 156.111 206.594 156.111H213.423C213.756 156.111 214.026 155.841 214.026 155.508C214.026 155.175 213.756 154.905 213.423 154.905Z" fill="white"/>
<path d="M207.626 152.083H206.527C206.194 152.083 205.924 152.353 205.924 152.686C205.924 153.019 206.194 153.289 206.527 153.289H207.626C207.959 153.289 208.229 153.019 208.229 152.686C208.229 152.353 207.959 152.083 207.626 152.083Z" fill="white"/>
<path d="M220.191 152.083H219.093C218.76 152.083 218.49 152.353 218.49 152.686C218.49 153.019 218.76 153.289 219.093 153.289H220.191C220.524 153.289 220.794 153.019 220.794 152.686C220.794 152.353 220.524 152.083 220.191 152.083Z" fill="white"/>
<path d="M223.752 152.083H222.653C222.32 152.083 222.05 152.353 222.05 152.686C222.05 153.019 222.32 153.289 222.653 153.289H223.752C224.085 153.289 224.355 153.019 224.355 152.686C224.355 152.353 224.085 152.083 223.752 152.083Z" fill="white"/>
<path d="M216.773 152.184H209.945C209.612 152.184 209.342 152.454 209.342 152.786C209.342 153.119 209.612 153.389 209.945 153.389H216.773C217.107 153.389 217.377 153.119 217.377 152.786C217.377 152.454 217.107 152.184 216.773 152.184Z" fill="white"/>
<path d="M210.976 149.362H209.878C209.545 149.362 209.275 149.632 209.275 149.965C209.275 150.298 209.545 150.568 209.878 150.568H210.976C211.31 150.568 211.58 150.298 211.58 149.965C211.58 149.632 211.31 149.362 210.976 149.362Z" fill="white"/>
<path d="M223.542 149.362H222.444C222.11 149.362 221.84 149.632 221.84 149.965C221.84 150.298 222.11 150.568 222.444 150.568H223.542C223.875 150.568 224.145 150.298 224.145 149.965C224.145 149.632 223.875 149.362 223.542 149.362Z" fill="white"/>
<path d="M227.103 149.362H226.004C225.671 149.362 225.401 149.632 225.401 149.965C225.401 150.298 225.671 150.568 226.004 150.568H227.103C227.436 150.568 227.706 150.298 227.706 149.965C227.706 149.632 227.436 149.362 227.103 149.362Z" fill="white"/>
<path d="M220.124 149.462H213.296C212.963 149.462 212.693 149.732 212.693 150.065C212.693 150.398 212.963 150.668 213.296 150.668H220.124C220.457 150.668 220.727 150.398 220.727 150.065C220.727 149.732 220.457 149.462 220.124 149.462Z" fill="white"/>
<path d="M195.083 189.419L189.925 181.27L206.114 168.37L212.797 160.97C213.665 160.009 214.77 159.292 216.002 158.891C217.234 158.491 218.55 158.42 219.818 158.687C221.086 158.954 222.261 159.549 223.227 160.412C224.193 161.276 224.915 162.377 225.322 163.607C225.924 165.429 225.795 167.414 224.96 169.143C224.126 170.871 222.653 172.209 220.851 172.872L210.285 176.763L195.083 189.419Z" fill="#FFB6B6"/>
<path d="M74.0624 130.332V169.939H101.823V130.332C101.823 130.047 101.732 129.769 101.563 129.54C101.394 129.31 101.156 129.141 100.884 129.057C100.756 129.015 100.621 128.994 100.486 128.995H75.4031C75.2272 128.995 75.0531 129.029 74.8905 129.096C74.7279 129.163 74.5802 129.262 74.4557 129.386C74.3312 129.51 74.2323 129.657 74.1648 129.82C74.0974 129.982 74.0625 130.156 74.0624 130.332ZM84.8961 143.941C84.9033 143.16 85.2187 142.414 85.7737 141.864C86.3286 141.315 87.0783 141.006 87.8595 141.006C88.6407 141.006 89.3903 141.315 89.9453 141.864C90.5002 142.414 90.8157 143.16 90.8229 143.941V148.537C90.8189 149.32 90.5049 150.069 89.9496 150.621C89.3943 151.174 88.6428 151.484 87.8595 151.484C87.0761 151.484 86.3247 151.174 85.7694 150.621C85.214 150.069 84.9001 149.32 84.8961 148.537V143.941Z" fill="#2F2E41"/>
<path d="M73.9774 168.672V172.492C73.978 172.69 74.0567 172.879 74.1962 173.02C74.3358 173.16 74.5251 173.239 74.7231 173.241H101.162C101.36 173.24 101.55 173.161 101.69 173.02C101.829 172.88 101.908 172.69 101.908 172.492V168.672H73.9774Z" fill="#3F3D56"/>
<path d="M30.3915 70.6576V142.975C30.3922 143.897 30.7588 144.781 31.4108 145.432C32.0627 146.084 32.9468 146.45 33.8688 146.451H141.085C142.007 146.45 142.891 146.084 143.543 145.432C144.195 144.781 144.562 143.897 144.562 142.975V70.6576C144.56 69.7368 144.193 68.8544 143.541 68.2037C142.89 67.5529 142.006 67.1869 141.085 67.1857H33.8688C32.9476 67.1869 32.0644 67.5529 31.4126 68.2037C30.7609 68.8544 30.3937 69.7368 30.3915 70.6576Z" fill="#3F3D56"/>
<path d="M32.9067 71.5574V142.083C32.9076 142.576 33.1036 143.048 33.452 143.396C33.8003 143.744 34.2725 143.94 34.7652 143.941H140.193C140.685 143.94 141.157 143.744 141.506 143.396C141.854 143.048 142.05 142.576 142.051 142.083V71.5574C142.051 71.0644 141.855 70.5915 141.507 70.2425C141.159 69.8936 140.686 69.697 140.193 69.6959H34.7652C34.2719 69.697 33.7993 69.8936 33.4509 70.2425C33.1025 70.5915 32.9068 71.0644 32.9067 71.5574Z" fill="white"/>
<path d="M52.4723 172.982C52.5796 173.117 52.716 173.225 52.8712 173.3C53.0265 173.374 53.1965 173.412 53.3686 173.411H116.091C116.263 173.411 116.432 173.372 116.587 173.299C116.742 173.225 116.878 173.117 116.986 172.984C117.094 172.851 117.171 172.695 117.212 172.529C117.252 172.362 117.255 172.189 117.219 172.021L116.246 167.398C116.205 167.21 116.118 167.034 115.993 166.888C115.867 166.741 115.707 166.629 115.527 166.56C115.397 166.509 115.258 166.483 115.118 166.483H54.3384C54.1983 166.483 54.0593 166.509 53.9289 166.56C53.7487 166.629 53.5885 166.741 53.463 166.888C53.3375 167.034 53.2506 167.21 53.2102 167.398L52.2366 172.021C52.2019 172.188 52.2051 172.362 52.2459 172.528C52.2867 172.694 52.364 172.85 52.4723 172.982Z" fill="#2F2E41"/>
<path d="M136.771 79.4112H38.1231C38.0206 79.4089 37.923 79.3666 37.8513 79.2933C37.7796 79.22 37.7394 79.1216 37.7394 79.0191C37.7394 78.9166 37.7796 78.8181 37.8513 78.7448C37.923 78.6715 38.0206 78.6292 38.1231 78.627H136.771C136.874 78.6292 136.971 78.6715 137.043 78.7448C137.115 78.8181 137.155 78.9166 137.155 79.0191C137.155 79.1216 137.115 79.22 137.043 79.2933C136.971 79.3666 136.874 79.4089 136.771 79.4112Z" fill="#3F3D56"/>
<path d="M44.8382 76.6249C46.1079 76.6249 47.1373 75.5732 47.1373 74.2757C47.1373 72.9783 46.1079 71.9265 44.8382 71.9265C43.5685 71.9265 42.5392 72.9783 42.5392 74.2757C42.5392 75.5732 43.5685 76.6249 44.8382 76.6249Z" fill="#3F3D56"/>
<path d="M52.7803 76.6249C54.0501 76.6249 55.0794 75.5732 55.0794 74.2757C55.0794 72.9783 54.0501 71.9265 52.7803 71.9265C51.5106 71.9265 50.4813 72.9783 50.4813 74.2757C50.4813 75.5732 51.5106 76.6249 52.7803 76.6249Z" fill="#3F3D56"/>
<path d="M60.7225 76.6249C61.9922 76.6249 63.0215 75.5732 63.0215 74.2757C63.0215 72.9783 61.9922 71.9265 60.7225 71.9265C59.4528 71.9265 58.4235 72.9783 58.4235 74.2757C58.4235 75.5732 59.4528 76.6249 60.7225 76.6249Z" fill="#3F3D56"/>
<path d="M131.989 72.5074H126.348C126.236 72.51 126.13 72.5561 126.052 72.6359C125.974 72.7156 125.931 72.8227 125.931 72.9342C125.931 73.0457 125.974 73.1527 126.052 73.2325C126.13 73.3122 126.236 73.3583 126.348 73.3609H131.989C132.101 73.3593 132.208 73.3137 132.287 73.2338C132.366 73.154 132.41 73.0463 132.41 72.9342C132.41 72.822 132.366 72.7144 132.287 72.6345C132.208 72.5547 132.101 72.509 131.989 72.5074Z" fill="#3F3D56"/>
<path d="M131.989 74.1101H126.348C126.236 74.1126 126.13 74.1586 126.052 74.2384C125.974 74.3181 125.93 74.4253 125.93 74.5369C125.93 74.6484 125.974 74.7556 126.052 74.8353C126.13 74.9151 126.236 74.9611 126.348 74.9636H131.989C132.101 74.9622 132.208 74.9167 132.287 74.8368C132.366 74.7569 132.411 74.6491 132.411 74.5369C132.411 74.4246 132.366 74.3168 132.287 74.2369C132.208 74.157 132.101 74.1115 131.989 74.1101Z" fill="#3F3D56"/>
<path d="M131.989 75.7128H126.348C126.236 75.7154 126.13 75.7615 126.052 75.8412C125.974 75.921 125.931 76.028 125.931 76.1395C125.931 76.251 125.974 76.3581 126.052 76.4378C126.13 76.5176 126.236 76.5636 126.348 76.5662H131.989C132.101 76.5647 132.208 76.519 132.287 76.4391C132.366 76.3593 132.41 76.2517 132.41 76.1395C132.41 76.0274 132.366 75.9197 132.287 75.8399C132.208 75.76 132.101 75.7144 131.989 75.7128Z" fill="#3F3D56"/>
<path d="M267.981 170.349C268.152 170.844 268.474 171.273 268.904 171.573C269.333 171.874 269.846 172.031 270.37 172.021L280.606 171.758C281.134 171.748 281.644 171.567 282.06 171.243C282.477 170.919 282.777 170.469 282.917 169.96L284.365 154.478C284.879 154.711 285.438 154.826 286.002 154.815C286.493 154.802 286.975 154.694 287.423 154.495C287.871 154.296 288.276 154.011 288.614 153.656C288.952 153.301 289.216 152.883 289.392 152.426C289.568 151.968 289.653 151.481 289.64 150.991C289.628 150.501 289.519 150.019 289.321 149.571C289.122 149.123 288.836 148.719 288.481 148.381C288.126 148.043 287.708 147.779 287.25 147.603C286.793 147.427 286.305 147.342 285.815 147.355C285.59 147.354 285.365 147.377 285.144 147.424C284.905 147.165 284.613 146.959 284.289 146.819C283.964 146.679 283.614 146.609 283.261 146.612L267.517 147.019C267.386 147.024 267.256 147.04 267.128 147.067C266.783 147.131 266.455 147.269 266.168 147.47C265.88 147.672 265.639 147.932 265.461 148.235C265.282 148.537 265.171 148.874 265.134 149.223C265.096 149.572 265.135 149.925 265.245 150.259L267.981 170.349ZM284.662 153.427L285.693 149.738C285.81 149.312 285.813 148.862 285.701 148.435C285.751 148.435 285.795 148.411 285.845 148.411C286.552 148.396 287.235 148.662 287.746 149.151C288.257 149.639 288.553 150.31 288.569 151.017C288.586 151.723 288.321 152.407 287.834 152.919C287.347 153.431 286.676 153.728 285.97 153.747C285.513 153.761 285.061 153.651 284.662 153.427Z" fill="#2F2E41"/>
<path d="M267.128 147.067C267.464 148.984 271.235 150.332 275.77 150.097C279.94 149.905 283.349 148.442 283.974 146.707C283.743 146.639 283.502 146.607 283.261 146.612L267.517 147.019C267.386 147.023 267.256 147.04 267.128 147.067Z" fill="#3F3D56"/>
<path d="M276.601 161.842C276.621 161.836 276.641 161.828 276.659 161.816L278.882 160.362C278.909 160.344 278.931 160.32 278.946 160.292C278.961 160.264 278.969 160.232 278.969 160.2C278.969 160.168 278.961 160.137 278.946 160.108C278.931 160.08 278.909 160.056 278.882 160.039L276.572 158.526C276.55 158.512 276.527 158.502 276.502 158.498C276.477 158.493 276.451 158.493 276.426 158.498C276.401 158.503 276.378 158.513 276.356 158.528C276.335 158.542 276.317 158.56 276.304 158.581C276.29 158.603 276.28 158.626 276.275 158.651C276.271 158.676 276.271 158.702 276.276 158.727C276.281 158.752 276.291 158.775 276.306 158.796C276.32 158.817 276.339 158.835 276.36 158.849L278.423 160.2L276.448 161.493C276.409 161.518 276.381 161.556 276.368 161.599C276.355 161.643 276.358 161.69 276.376 161.732C276.395 161.774 276.427 161.808 276.468 161.828C276.509 161.848 276.556 161.853 276.601 161.842Z" fill="#6C63FF"/>
<path d="M273.09 162.003C273.127 161.994 273.161 161.974 273.186 161.945C273.212 161.916 273.229 161.881 273.234 161.843C273.239 161.804 273.233 161.766 273.216 161.731C273.199 161.697 273.172 161.668 273.139 161.649L271.09 160.475L273.07 159.004C273.09 158.989 273.108 158.97 273.121 158.949C273.134 158.927 273.142 158.903 273.146 158.878C273.15 158.853 273.148 158.827 273.142 158.802C273.136 158.778 273.125 158.755 273.11 158.734C273.095 158.714 273.076 158.697 273.054 158.684C273.032 158.671 273.008 158.662 272.983 158.659C272.958 158.655 272.932 158.656 272.908 158.662C272.883 158.669 272.86 158.679 272.84 158.695L270.623 160.341C270.597 160.36 270.576 160.385 270.563 160.414C270.549 160.443 270.543 160.475 270.545 160.507C270.547 160.539 270.557 160.57 270.573 160.597C270.59 160.625 270.614 160.647 270.642 160.663L272.946 161.984C272.99 162.009 273.041 162.016 273.09 162.003Z" fill="#6C63FF"/>
<path d="M276.38 163.116C276.398 163.111 276.416 163.104 276.433 163.094C276.454 163.081 276.473 163.063 276.488 163.043C276.503 163.022 276.514 162.999 276.52 162.974C276.526 162.95 276.527 162.924 276.523 162.899C276.519 162.874 276.51 162.85 276.497 162.828L273.346 157.65C273.32 157.607 273.277 157.575 273.227 157.563C273.177 157.551 273.125 157.559 273.081 157.586C273.037 157.613 273.006 157.656 272.994 157.705C272.981 157.755 272.99 157.807 273.016 157.851L276.167 163.029C276.189 163.065 276.221 163.092 276.259 163.108C276.297 163.123 276.34 163.126 276.38 163.116Z" fill="#6C63FF"/>
<path d="M99.2339 100.729H82.1601C81.4636 100.729 80.8989 101.293 80.8989 101.989V103.657C80.8989 104.353 81.4636 104.917 82.1601 104.917H99.2339C99.9304 104.917 100.495 104.353 100.495 103.657V101.989C100.495 101.293 99.9304 100.729 99.2339 100.729Z" fill="#6C63FF"/>
<path d="M109.186 109.106H72.2079C71.5114 109.106 70.9467 109.67 70.9467 110.366V112.034C70.9467 112.73 71.5114 113.294 72.2079 113.294H109.186C109.883 113.294 110.447 112.73 110.447 112.034V110.366C110.447 109.67 109.883 109.106 109.186 109.106Z" fill="#E6E6E6"/>
<path d="M109.186 117.483H72.2079C71.5114 117.483 70.9467 118.047 70.9467 118.743V120.411C70.9467 121.107 71.5114 121.671 72.2079 121.671H109.186C109.883 121.671 110.447 121.107 110.447 120.411V118.743C110.447 118.047 109.883 117.483 109.186 117.483Z" fill="#E6E6E6"/>
<path d="M112.321 145.534L112.404 145.798L112.409 145.807L114.93 153.468L117.83 162.297L123.287 178.888L123.34 181.465V181.474L123.745 202.207L122.621 205.017L123.886 209.626C123.886 209.626 123.304 202.66 120.184 206.66C118.416 208.933 116.349 211.259 114.652 213.44C117.125 214.44 119.637 215.345 122.189 216.154C122.74 216.33 123.295 216.498 123.851 216.665C123.97 216.7 124.089 216.735 124.208 216.771C132.667 219.271 141.413 220.676 150.23 220.952C150.688 220.965 151.138 220.974 151.574 220.982C151.728 220.987 151.878 220.991 152.028 220.991C152.522 220.996 153.011 221 153.505 221C154.501 221 155.492 220.985 156.48 220.956C163.787 220.75 171.052 219.768 178.152 218.026C178.103 215.097 177.971 211.674 177.781 208.017C177.693 206.224 175.714 204.281 175.595 202.404C175.511 200.995 177.288 199.668 177.195 198.237C176.596 189.421 175.846 192.805 175.291 186.563C175.234 185.95 175.181 185.364 175.132 184.805C174.775 180.796 174.529 178.289 174.529 178.289L176.9 163.35L180.624 139.895L180.338 139.424L180.016 139.265L160.372 129.546L159.305 126.815C158.994 126.028 158.455 125.352 157.757 124.874C157.058 124.396 156.233 124.137 155.387 124.132L142.446 124.079C141.775 124.076 141.112 124.233 140.513 124.537C139.915 124.841 139.397 125.284 139.004 125.828L135.5 130.679L112.321 145.534Z" fill="#3F3D56"/>
<path d="M126.271 175.196L123.34 181.465L121.339 185.748L117.896 203.762L116.173 205.59L114.696 199.118L99.2427 202.548C98.7358 199.732 99.107 202.643 98.7941 199.555C98.8822 199.466 98.9748 199.378 99.0673 199.29C99.3142 199.061 99.5213 198.845 99.5169 198.638C99.3406 187.986 99.8695 169.857 104.286 158.874C104.978 157.081 105.89 155.38 107.001 153.812C107.089 153.693 107.173 153.574 107.257 153.455C109.293 150.605 110.58 147.798 112.405 145.803V145.798C112.416 145.789 112.426 145.779 112.435 145.767C112.442 145.764 112.448 145.76 112.453 145.754L124.988 139.111L125.526 154.213L125.909 165.068L126.271 175.196Z" fill="#3F3D56"/>
<path d="M171.469 176.977L175.131 184.807L176.409 187.534L179.85 205.546L181.568 207.37L183.047 200.899L183.743 200.757L196.284 198.161L199.939 209.764C200.763 208.392 201.087 206.778 200.858 205.194C200.628 203.611 199.858 202.155 198.679 201.073C198.429 200.847 198.221 200.627 198.227 200.419C198.435 187.89 197.668 165.012 190.744 155.596C188.545 152.608 187.226 149.631 185.306 147.552C185.3 147.546 185.3 147.54 185.294 147.54L180.622 139.894L180.337 139.425L180.016 139.265L171.469 176.977Z" fill="#3F3D56"/>
<path d="M149.29 120.398C158.798 120.398 166.506 112.694 166.506 103.19C166.506 93.6864 158.798 85.9821 149.29 85.9821C139.782 85.9821 132.074 93.6864 132.074 103.19C132.074 112.694 139.782 120.398 149.29 120.398Z" fill="#FFB6B6"/>
<path d="M172.559 91.1704C172.426 91.0279 172.265 90.9138 172.087 90.8348C171.908 90.7558 171.715 90.7137 171.52 90.7108L171.779 89.9925C171.863 89.7663 171.886 89.5216 171.845 89.2837C171.804 89.0457 171.7 88.823 171.544 88.6383C171.389 88.4536 171.187 88.3136 170.959 88.2326C170.731 88.1516 170.486 88.1326 170.249 88.1774L169.306 88.3589L169.395 87.7294C169.429 87.495 169.402 87.2557 169.315 87.0352C169.229 86.8146 169.086 86.6203 168.902 86.4715C168.717 86.3226 168.497 86.2243 168.263 86.1862C168.03 86.1481 167.79 86.1715 167.568 86.2542C167.365 86.3337 167.148 86.367 166.932 86.3516C166.715 86.3362 166.505 86.2726 166.316 86.1654C166.126 86.0614 165.962 85.9174 165.833 85.7433C165.705 85.5692 165.617 85.3692 165.574 85.1574L165.246 83.574L165.211 83.4891C163.611 80.8244 160.536 78.8857 156.773 78.1751C153.423 77.5379 149.988 77.8623 146.677 78.1674C145.363 78.291 143.88 78.43 142.643 79.1869C141.592 79.8357 140.704 81.1333 140.885 82.4425C137.62 81.4423 134.12 83.4389 132.385 85.9568C130.33 88.9536 129.994 92.7074 129.939 95.6425C129.793 102.586 131.226 108.267 134.189 112.531C134.406 112.839 134.46 113.484 134.889 113.701L134.8 113.558C135.279 113.797 135.766 114.183 135.584 114.597C135.063 115.786 138.528 118.416 140.97 119.285C145.425 120.872 151.348 120.737 155.513 120.165L155.66 119.181C157.163 118.976 158.221 118.586 158.519 117.976C159.044 117.528 159.493 117.126 159.883 116.755L159.887 116.752C159.894 116.744 159.91 116.732 159.918 116.725C161.799 114.921 162.236 113.894 162.433 112.33C162.622 110.797 162.286 109.24 161.942 107.838C169.183 108.958 159.091 100.13 165.837 98.423C165.914 98.3992 165.993 98.3799 166.072 98.3651C166.269 98.3188 166.466 98.2724 166.656 98.2184C167.568 97.9708 168.442 97.5977 169.252 97.11C171.138 95.963 171.76 94.4414 172.733 92.7267C172.874 92.4826 172.933 92.2 172.901 91.9201C172.87 91.6402 172.75 91.3776 172.559 91.1704Z" fill="#2F2E41"/>
<path d="M210.18 178.202C210.176 178.878 210.168 179.824 210.137 180.994C210.133 181.156 210.13 181.323 210.126 181.492C210.075 183.644 210.025 185.447 209.944 187.451C209.94 187.59 209.936 187.726 209.929 187.865C209.82 190.661 209.65 193.916 209.357 199.072C208.812 208.595 207.862 200.381 206.907 203.722C206.861 203.888 206.811 204.085 206.764 204.316C206.62 205.157 206.376 205.978 206.038 206.761C205.532 207.062 205.01 207.352 204.496 207.641C203.032 208.456 201.545 209.24 200.045 209.986C199.203 210.403 198.357 210.812 197.507 211.206C197.372 211.268 197.24 211.329 197.109 211.387C192.756 213.4 188.27 215.111 183.683 216.508C182.786 216.779 181.894 217.041 180.99 217.284C180.047 217.547 179.104 217.794 178.15 218.026C171.051 219.768 163.786 220.751 156.479 220.957C155.494 220.988 154.501 221 153.504 221C153.009 221 152.523 220.996 152.028 220.992C151.877 220.992 151.727 220.988 151.576 220.984C151.139 220.973 150.687 220.965 150.231 220.953C141.414 220.678 132.669 219.273 124.21 216.771L123.85 216.667C123.294 216.497 122.741 216.331 122.189 216.153C119.639 215.346 117.126 214.442 114.651 213.442C112.762 212.681 110.894 211.865 109.049 210.993C109.032 210.989 109.016 210.981 109.002 210.97C108.616 210.793 108.226 210.607 107.839 210.418C107.789 210.391 107.735 210.364 107.681 210.337C106.24 209.634 104.814 208.898 103.404 208.128C102.218 205.405 100.549 204.884 99.5132 202.49C99.2118 201.778 98.994 201.034 98.8641 200.273C98.8641 200.265 98.8602 200.257 98.8602 200.246C98.9684 201.682 98.4004 197.697 98.8564 200.23C98.8525 200.184 98.8486 200.134 98.8448 200.076C98.8332 199.937 98.8177 199.767 98.7946 199.555C97.4693 186.621 97.5543 171.83 96.9786 159.642C96.94 158.854 96.9001 158.1 96.8589 157.379C96.8473 157.139 96.8318 156.904 96.8163 156.672C96.8434 156.603 96.8743 156.529 96.9091 156.46C96.9165 156.44 96.9255 156.42 96.9361 156.402C96.9475 156.378 96.9604 156.355 96.9748 156.332C96.9825 156.321 96.9941 156.305 97.0018 156.294C97.0075 156.28 97.0139 156.267 97.0211 156.255C97.0559 156.201 97.0945 156.143 97.137 156.089C97.1563 156.066 97.1718 156.046 97.1911 156.027C97.2045 156.007 97.22 155.989 97.2375 155.973C97.2493 155.954 97.2636 155.938 97.28 155.923C97.2954 155.907 97.3109 155.888 97.3302 155.869C97.3385 155.857 97.349 155.846 97.3611 155.838C97.3917 155.803 97.4253 155.77 97.4616 155.741C97.5994 155.615 97.7467 155.498 97.902 155.394C97.9561 155.359 98.0141 155.324 98.0682 155.286C98.4575 155.053 98.8675 154.856 99.2929 154.699C99.4398 154.645 99.5866 154.594 99.745 154.54C99.8029 154.525 99.857 154.506 99.915 154.486C100 154.459 100.085 154.432 100.174 154.413C100.614 154.282 101.09 154.17 101.603 154.065C101.665 154.054 101.731 154.042 101.797 154.027C101.889 154.007 101.986 153.992 102.083 153.976C102.214 153.953 102.349 153.93 102.484 153.907C103.632 153.725 104.934 153.59 106.371 153.501C106.506 153.494 106.642 153.486 106.777 153.478C106.935 153.471 107.094 153.463 107.256 153.455C107.391 153.447 107.53 153.443 107.669 153.44C107.805 153.432 107.944 153.428 108.087 153.424C108.477 153.413 108.879 153.401 109.288 153.393C110.455 153.37 111.684 153.378 112.974 153.405C113.573 153.42 114.183 153.436 114.809 153.463C114.852 153.463 114.891 153.467 114.929 153.467C115.474 153.486 116.023 153.509 116.587 153.54C116.981 153.559 117.379 153.579 117.777 153.602C118.151 153.625 118.53 153.648 118.913 153.675C119.21 153.691 119.508 153.714 119.809 153.733C120.064 153.752 120.319 153.772 120.574 153.787L120.922 153.81C121.111 153.826 121.3 153.837 121.493 153.857C121.918 153.891 122.343 153.926 122.776 153.961C123.205 154 123.642 154.038 124.078 154.077C124.515 154.115 124.955 154.158 125.396 154.2C125.442 154.204 125.485 154.208 125.527 154.212C125.929 154.255 126.331 154.293 126.736 154.336C126.829 154.343 126.926 154.351 127.019 154.363C127.405 154.401 127.8 154.447 128.19 154.488C128.31 154.501 128.429 154.514 128.549 154.527C128.855 154.56 129.156 154.589 129.464 154.625C129.87 154.672 130.283 154.714 130.685 154.768C130.998 154.803 131.311 154.838 131.624 154.876C132.115 154.934 132.613 154.996 133.111 155.062C133.301 155.085 133.49 155.108 133.679 155.135C135.101 155.313 136.539 155.51 137.999 155.714C140.213 156.027 142.461 156.367 144.726 156.734C146.994 157.101 149.274 157.488 151.568 157.896C152.148 158.001 152.727 158.105 153.311 158.213C153.573 158.263 153.836 158.313 154.099 158.364C154.547 158.445 154.995 158.53 155.443 158.615C155.892 158.7 156.34 158.784 156.788 158.873C157.321 158.978 157.858 159.082 158.391 159.186C161.903 159.881 165.396 160.623 168.804 161.399C169.364 161.526 169.924 161.658 170.481 161.785C171.593 162.044 172.696 162.307 173.788 162.573C174.089 162.643 174.387 162.716 174.684 162.789C175.426 162.975 176.168 163.16 176.898 163.349L177.026 163.384C177.563 163.515 178.088 163.65 178.614 163.79C179.854 164.114 181.074 164.442 182.273 164.774C183.068 164.994 183.855 165.217 184.633 165.442C185.796 165.778 186.936 166.118 188.045 166.462C188.319 166.547 188.594 166.632 188.864 166.713C189.675 166.964 190.475 167.219 191.252 167.474C191.87 167.675 192.473 167.879 193.068 168.084C193.663 168.289 194.246 168.493 194.818 168.698C195.185 168.829 195.548 168.968 195.911 169.1C196.433 169.293 196.947 169.486 197.449 169.679C197.604 169.737 197.754 169.799 197.905 169.857C198.002 169.899 198.094 169.934 198.187 169.972C198.369 170.046 198.554 170.115 198.732 170.189C198.913 170.258 199.091 170.332 199.269 170.409C199.443 170.478 199.62 170.552 199.79 170.625C199.964 170.695 200.134 170.768 200.304 170.845C200.447 170.903 200.586 170.965 200.722 171.027C200.996 171.146 201.27 171.266 201.537 171.39C201.668 171.452 201.799 171.509 201.931 171.571L202.232 171.71C202.275 171.733 202.317 171.753 202.36 171.772C202.456 171.818 202.557 171.869 202.653 171.915C202.877 172.019 203.098 172.131 203.314 172.235C203.604 172.382 203.886 172.529 204.156 172.672C204.431 172.819 204.697 172.965 204.952 173.108C204.995 173.131 205.033 173.155 205.076 173.178C205.134 173.209 205.192 173.243 205.25 173.274C205.447 173.386 205.636 173.502 205.825 173.614C206.196 173.842 206.548 174.066 206.876 174.29C206.95 174.34 207.019 174.39 207.093 174.437C207.336 174.61 207.568 174.78 207.784 174.954C207.784 174.958 207.784 174.958 207.788 174.958C207.862 175.012 207.931 175.07 208.001 175.124C208.059 175.178 208.12 175.225 208.178 175.279C208.379 175.452 208.565 175.618 208.735 175.788C208.792 175.841 208.846 175.896 208.897 175.954C208.92 175.973 208.94 175.994 208.959 176.016C209.036 176.093 209.106 176.171 209.171 176.248C209.182 176.259 209.191 176.27 209.198 176.283C209.291 176.391 209.376 176.499 209.457 176.607C209.496 176.661 209.538 176.715 209.573 176.769C209.62 176.835 209.666 176.904 209.705 176.97C209.739 177.024 209.77 177.082 209.801 177.136C209.883 177.275 209.953 177.421 210.01 177.573C210.053 177.675 210.088 177.781 210.114 177.889C210.143 177.992 210.165 178.096 210.18 178.202Z" fill="#2F2E41"/>
<path opacity="0.2" d="M210.18 178.202C210.176 178.878 210.168 179.824 210.137 180.994C210.133 181.156 210.126 181.322 210.122 181.492C210.083 183.134 210.025 185.161 209.944 187.451C209.94 187.59 209.936 187.725 209.929 187.865C209.82 190.661 209.65 193.916 209.357 199.072C208.812 208.595 207.862 200.381 206.907 203.721C204.257 202.092 201.351 200.385 198.245 198.631C197.685 198.315 197.119 197.997 196.549 197.678C190.336 194.213 183.397 190.583 176.153 186.988C175.867 186.845 175.577 186.702 175.291 186.563C158.697 178.364 140.584 170.389 125.91 165.068C123.078 164.04 120.373 163.114 117.831 162.299C112.476 160.588 107.847 159.391 104.285 158.873C100.576 158.333 98.014 158.526 96.9786 159.642C96.9399 158.854 96.9 158.1 96.8588 157.379C96.8433 157.139 96.8279 156.904 96.8124 156.672C96.8363 156.608 96.8673 156.548 96.8973 156.487C96.9016 156.478 96.9046 156.468 96.909 156.46C96.9164 156.44 96.9255 156.42 96.9361 156.402C96.9475 156.378 96.9604 156.354 96.9747 156.332C96.9873 156.305 97.0028 156.279 97.0211 156.255C97.0559 156.201 97.0945 156.143 97.137 156.089C97.1682 156.048 97.2018 156.01 97.2374 155.973C97.2493 155.954 97.2636 155.938 97.2799 155.923C97.2954 155.907 97.3108 155.888 97.3302 155.869C97.3384 155.857 97.3489 155.846 97.3611 155.838C97.3916 155.803 97.4253 155.77 97.4615 155.741C97.5994 155.614 97.7466 155.498 97.902 155.394C97.9561 155.359 98.014 155.324 98.0681 155.286C98.4575 155.053 98.8675 154.856 99.2929 154.699C99.4397 154.644 99.5865 154.594 99.745 154.54C99.8029 154.525 99.857 154.505 99.915 154.486C100 154.459 100.085 154.432 100.174 154.413C100.614 154.281 101.09 154.169 101.603 154.065C101.758 154.034 101.92 154.003 102.082 153.976C102.214 153.953 102.349 153.93 102.484 153.907C103.632 153.725 104.934 153.59 106.371 153.501C106.506 153.494 106.642 153.486 106.777 153.478C106.935 153.47 107.094 153.463 107.256 153.455C107.391 153.447 107.53 153.443 107.669 153.44C107.805 153.432 107.944 153.428 108.087 153.424C108.477 153.413 108.879 153.401 109.288 153.393C110.455 153.374 111.684 153.382 112.974 153.409C113.573 153.42 114.183 153.44 114.809 153.467C114.848 153.467 114.89 153.47 114.929 153.47C115.474 153.486 116.026 153.513 116.587 153.54C116.981 153.559 117.379 153.579 117.777 153.602C118.151 153.625 118.53 153.648 118.913 153.675C119.21 153.691 119.508 153.714 119.809 153.733C120.064 153.752 120.319 153.772 120.574 153.787C120.879 153.81 121.184 153.833 121.493 153.857C121.918 153.891 122.343 153.926 122.776 153.961C123.205 154 123.642 154.038 124.078 154.077C124.515 154.115 124.955 154.158 125.396 154.2C125.442 154.204 125.485 154.208 125.527 154.212C125.929 154.254 126.331 154.293 126.736 154.336C128.985 154.563 131.299 154.83 133.679 155.135C135.101 155.316 136.541 155.511 137.999 155.718C140.213 156.031 142.462 156.371 144.726 156.734C146.994 157.101 149.274 157.488 151.568 157.896C152.148 158 152.727 158.105 153.311 158.213C154.022 158.344 154.732 158.478 155.443 158.615C155.892 158.699 156.34 158.784 156.788 158.873C157.321 158.978 157.858 159.082 158.391 159.186C161.903 159.881 165.396 160.623 168.804 161.399C169.364 161.526 169.924 161.658 170.481 161.785C171.593 162.044 172.696 162.306 173.788 162.573C174.089 162.646 174.387 162.72 174.684 162.793C175.43 162.978 176.168 163.164 176.898 163.349V163.353C176.941 163.361 176.983 163.372 177.026 163.384C177.559 163.519 178.088 163.654 178.614 163.793C179.854 164.118 181.074 164.445 182.273 164.774C183.069 164.998 183.857 165.218 184.633 165.442C185.796 165.782 186.936 166.122 188.045 166.462C188.319 166.547 188.594 166.632 188.864 166.713C189.675 166.968 190.471 167.221 191.252 167.474C191.87 167.675 192.473 167.879 193.068 168.084C193.663 168.289 194.246 168.493 194.818 168.698C195.189 168.829 195.552 168.964 195.911 169.096C196.437 169.289 196.947 169.482 197.449 169.679C197.604 169.737 197.754 169.799 197.905 169.857C198.187 169.965 198.461 170.077 198.732 170.189C198.913 170.258 199.091 170.332 199.269 170.409C199.443 170.478 199.62 170.552 199.79 170.625C199.964 170.695 200.134 170.768 200.304 170.845C200.447 170.903 200.586 170.965 200.722 171.027C200.996 171.146 201.27 171.266 201.537 171.39C201.668 171.451 201.8 171.509 201.931 171.571L202.232 171.71C202.275 171.733 202.317 171.753 202.36 171.772C202.688 171.926 203.005 172.081 203.314 172.235C203.604 172.382 203.886 172.529 204.156 172.672C204.477 172.842 204.782 173.008 205.076 173.178C205.134 173.209 205.192 173.243 205.25 173.274C205.447 173.386 205.636 173.502 205.825 173.614C206.196 173.842 206.548 174.066 206.876 174.29C207.201 174.514 207.502 174.734 207.784 174.954C207.784 174.958 207.784 174.958 207.788 174.958C207.923 175.066 208.055 175.174 208.178 175.279C208.379 175.452 208.565 175.618 208.735 175.788C208.792 175.841 208.846 175.896 208.897 175.954C208.92 175.973 208.94 175.994 208.959 176.016C209.04 176.105 209.121 176.194 209.198 176.283C209.291 176.391 209.376 176.499 209.457 176.607C209.496 176.661 209.538 176.715 209.573 176.769C209.62 176.835 209.666 176.904 209.705 176.97C209.739 177.024 209.77 177.082 209.801 177.136C209.883 177.275 209.953 177.421 210.01 177.573C210.052 177.675 210.087 177.781 210.114 177.889C210.143 177.992 210.165 178.096 210.18 178.202Z" fill="black"/>
</g>
<defs>
<clipPath id="clip0_130_192">
<rect width="304" height="221" fill="white"/>
</clipPath>
</defs>
</svg>
