<svg width="353" height="198" viewBox="0 0 353 198" fill="none" xmlns="http://www.w3.org/2000/svg">
<g clip-path="url(#clip0_130_372)">
<path d="M329.089 186.473C328.994 190.039 328.396 193.574 327.313 196.974C327.289 197.053 327.262 197.13 327.236 197.209H320.608C320.615 197.138 320.623 197.06 320.63 196.974C321.071 191.897 318.547 161.37 315.5 156.087C315.767 156.515 329.603 170.343 329.089 186.473Z" fill="#F1F1F1"/>
<path d="M328.592 196.974C328.536 197.053 328.479 197.132 328.42 197.209H323.447C323.485 197.142 323.529 197.063 323.579 196.974C324.401 195.493 326.832 191.064 329.089 186.473C331.513 181.539 333.739 176.418 333.552 174.565C333.61 174.983 335.288 187.726 328.592 196.974Z" fill="#F1F1F1"/>
<path d="M18.3427 189.235C18.4137 191.884 18.8578 194.509 19.6619 197.034C19.6797 197.093 19.6995 197.151 19.7188 197.209H24.6413C24.6361 197.157 24.6308 197.098 24.6256 197.034C24.2974 193.264 26.1725 170.592 28.435 166.668C28.2368 166.986 17.961 177.256 18.3427 189.235Z" fill="#F1F1F1"/>
<path d="M18.7121 197.034C18.7533 197.093 18.7961 197.151 18.8399 197.209H22.5329C22.5049 197.159 22.4725 197.101 22.4349 197.034C21.8248 195.934 20.0192 192.645 18.3431 189.235C16.5426 185.571 14.8893 181.768 15.0285 180.391C14.9854 180.702 13.7389 190.166 18.7121 197.034Z" fill="#F1F1F1"/>
<path d="M258.833 138.887C221.654 123.144 188.018 123.742 156.336 133.351C107.52 124.833 74.0936 126.151 52.6521 138.887V99.3459H258.833V138.887Z" fill="#CBCBCB"/>
<path d="M258.833 128.013C224.58 112.506 190.37 111.505 155.643 128.013C120.075 117.781 85.6908 117.888 52.4542 128.013V7.80928C87.7914 -2.72869 122.165 -2.47545 155.643 7.80928C191.007 -2.43993 225.435 -2.76499 258.833 7.80928V128.013Z" fill="#E5E5E5"/>
<path d="M61.7364 22.7264L60.5842 19.78C61.0358 19.6037 71.8262 15.4357 87.6622 13.3096C102.303 11.3436 124.116 10.8742 144.891 19.8001L143.641 22.7061C123.56 14.079 102.392 14.5333 88.1699 16.4331C72.6899 18.5015 61.8441 22.6843 61.7364 22.7264Z" fill="white"/>
<path d="M61.7364 33.7978L60.5842 30.8514C61.0358 30.6751 71.8262 26.5071 87.6622 24.381C102.303 22.4152 124.116 21.9458 144.891 30.8714L143.641 33.7775C123.56 25.1504 102.392 25.6043 88.1699 27.5045C72.6899 29.5729 61.8441 33.7557 61.7364 33.7978Z" fill="white"/>
<path d="M61.7364 44.8692L60.5842 41.9228C61.0358 41.7465 71.8262 37.5785 87.6622 35.4525C102.303 33.4864 124.116 33.0171 144.891 41.9429L143.641 44.849C123.56 36.2218 102.392 36.6757 88.1699 38.5759C72.6899 40.6443 61.8441 44.8272 61.7364 44.8692Z" fill="white"/>
<path d="M61.7364 55.9406L60.5842 52.9942C61.0358 52.8179 71.8262 48.6499 87.6622 46.5239C102.303 44.5582 124.116 44.0883 144.891 53.0143L143.641 55.9204C123.56 47.2932 102.392 47.7473 88.1699 49.6473C72.6899 51.7157 61.8441 55.8986 61.7364 55.9406Z" fill="white"/>
<path d="M61.7364 67.0121L60.5842 64.0656C61.0358 63.8894 71.8262 59.7214 87.6622 57.5953C102.303 55.6292 124.116 55.1599 144.891 64.0857L143.641 66.9918C123.56 58.3645 102.392 58.8188 88.1699 60.7188C72.6899 62.7871 61.8441 66.97 61.7364 67.0121Z" fill="white"/>
<path d="M61.7364 78.0834L60.5842 75.137C61.0358 74.9607 71.8262 70.7927 87.6622 68.6666C102.303 66.701 124.116 66.2312 144.891 75.1571L143.641 78.0632C123.56 69.4358 102.392 69.8903 88.1699 71.7901C72.6899 73.8585 61.8441 78.0413 61.7364 78.0834Z" fill="white"/>
<path d="M165.025 101.412L163.872 98.466C164.324 98.2897 175.114 94.1217 190.95 91.9956C205.591 90.03 227.404 89.5602 248.179 98.486L246.929 101.392C226.848 92.7648 205.68 93.2193 191.458 95.1191C175.978 97.1875 165.132 101.37 165.025 101.412Z" fill="#6C63FF"/>
<path d="M164.053 80.1643V19.6949L165.164 19.3481C193.318 10.5609 221.336 10.5627 248.439 19.3533L249.533 19.7082V80.0838L247.391 79.276C219.187 68.6402 191.884 68.6338 166.242 79.2573L164.053 80.1643ZM205.828 68.1241C219.08 68.1241 232.593 70.5921 246.367 75.5282V22.0123C220.598 13.8927 193.98 13.8972 167.219 22.0252V75.4548C179.515 70.6144 192.612 68.1277 205.828 68.1241Z" fill="white"/>
<path d="M246.432 99.8455L246.847 89.782L261.072 61.5225C261.474 60.7191 262.128 60.0694 262.934 59.6733C263.428 59.4272 263.966 59.2819 264.516 59.246C265.067 59.2101 265.62 59.2842 266.141 59.4641C266.745 59.6723 267.293 60.0171 267.742 60.4717C268.191 60.9262 268.529 61.4783 268.729 62.0847C268.815 62.3466 268.875 62.6161 268.909 62.8895C269.011 63.701 268.867 64.5241 268.497 65.2535L254.252 93.5513L246.432 99.8455Z" fill="#6C63FF"/>
<path d="M264.706 59.4357L249.264 90.1113L248.087 89.5197L263.021 59.8508C263.545 59.589 264.12 59.4472 264.706 59.4357Z" fill="#3F3D56"/>
<path d="M268.713 62.9145L253.86 92.421L252.683 91.8294L268.092 61.2173C268.282 61.5061 268.433 61.8186 268.541 62.1467C268.623 62.3965 268.681 62.6537 268.713 62.9145Z" fill="#3F3D56"/>
<path d="M267.234 60.2816L251.622 91.2964L250.445 90.7048L266.077 59.6511C266.243 59.7081 266.406 59.7764 266.563 59.8556C266.8 59.9752 267.025 60.1179 267.234 60.2816Z" fill="#3F3D56"/>
<path d="M248.218 98.1548L246.647 99.4189L246.779 96.0859C247.318 96.2729 247.902 97.0842 248.218 98.1548Z" fill="#3F3D56"/>
<path d="M93.2658 134.479L91.3851 128.779L93.3887 110.037C93.4438 109.505 93.6722 109.005 94.0389 108.615C94.2627 108.375 94.5323 108.181 94.8319 108.045C95.1315 107.91 95.4551 107.836 95.7839 107.827C96.1646 107.816 96.5426 107.894 96.8883 108.053C97.2341 108.213 97.5384 108.45 97.7774 108.746C97.8802 108.874 97.9704 109.012 98.0468 109.157C98.2735 109.589 98.3661 110.078 98.3128 110.562L96.3065 129.33L93.2658 134.479Z" fill="#6C63FF"/>
<path d="M94.9771 108.112L92.8022 128.457L92.0213 128.373L94.1249 108.696C94.3619 108.44 94.653 108.241 94.9771 108.112Z" fill="#3F3D56"/>
<path d="M97.9424 109.212L95.8504 128.782L95.0696 128.699L97.24 108.396C97.4064 108.517 97.5562 108.66 97.6855 108.82C97.7836 108.942 97.8696 109.074 97.9424 109.212Z" fill="#3F3D56"/>
<path d="M96.5651 108.054L94.3662 128.624L93.5853 128.54L95.7871 107.945C95.8919 107.941 95.9969 107.945 96.1012 107.957C96.2586 107.974 96.414 108.006 96.5651 108.054Z" fill="#3F3D56"/>
<path d="M93.907 133.162L93.2961 134.196L92.67 132.31C93.0102 132.301 93.5062 132.631 93.907 133.162Z" fill="#3F3D56"/>
<path d="M296.979 127.795C296.765 128.17 296.479 128.498 296.137 128.762C295.796 129.026 295.406 129.22 294.99 129.334C294.149 129.563 293.251 129.448 292.494 129.016C291.738 128.584 291.184 127.869 290.955 127.028C290.725 126.188 290.84 125.291 291.272 124.535C291.28 124.522 291.287 124.509 291.295 124.497C291.387 124.343 291.49 124.196 291.604 124.058L288.84 104.368L288.757 103.779L288.195 99.7607L288.112 99.1816L288.418 99.196L293.775 99.4406L295.211 99.5054L295.391 103.171L296.41 123.777C296.942 124.286 297.288 124.959 297.391 125.688C297.494 126.417 297.349 127.159 296.979 127.795Z" fill="#FFB8B8"/>
<path d="M288.773 103.957L295.575 103.334C295.927 103.3 296.253 103.129 296.48 102.857C296.706 102.585 296.816 102.234 296.786 101.881L295.526 87.7485C295.404 86.3872 294.746 85.13 293.697 84.2534C292.647 83.3768 291.293 82.9526 289.93 83.0741C288.568 83.1957 287.31 83.853 286.432 84.9014C285.555 85.9499 285.13 87.3037 285.252 88.6649C285.261 88.7622 285.272 88.8592 285.286 88.9559L287.326 102.818C287.373 103.136 287.532 103.426 287.775 103.636C288.018 103.846 288.329 103.962 288.65 103.963C288.691 103.963 288.732 103.961 288.773 103.957Z" fill="#CBCBCB"/>
<path d="M293.928 92.5391C294.616 90.5921 294.648 88.4736 294.019 86.5067C293.39 84.5398 292.135 82.8324 290.444 81.6448C287.879 79.8913 284.369 79.2618 280.589 83.758C276.015 89.2469 272.752 95.7049 271.049 102.642L286.529 105.16C286.529 105.16 291.793 98.7302 293.928 92.5391Z" fill="#CBCBCB"/>
<path d="M268.892 193.831H264.478L262.379 176.822H268.893L268.892 193.831Z" fill="#FFB8B8"/>
<path d="M255.968 197.925H269.839V192.57H261.327C259.905 192.57 258.542 193.134 257.537 194.139C256.532 195.143 255.968 196.505 255.968 197.925Z" fill="#2F2E41"/>
<path d="M305.177 189.984L300.987 191.369L293.65 175.877L299.835 173.835L305.177 189.984Z" fill="#FFB8B8"/>
<path d="M294.191 197.925L307.361 193.576L305.68 188.491L297.598 191.16C296.248 191.606 295.131 192.569 294.492 193.838C293.853 195.106 293.745 196.577 294.191 197.925Z" fill="#2F2E41"/>
<path d="M284.211 77.1849C289.094 77.1849 293.053 73.2296 293.053 68.3505C293.053 63.4714 289.094 59.5161 284.211 59.5161C279.328 59.5161 275.369 63.4714 275.369 68.3505C275.369 73.2296 279.328 77.1849 284.211 77.1849Z" fill="#FFB8B8"/>
<path d="M276.469 189.096L280.568 162.067C280.612 161.778 280.754 161.514 280.971 161.319C281.189 161.124 281.467 161.011 281.759 160.998C282.05 160.985 282.337 161.074 282.571 161.249C282.804 161.425 282.969 161.675 283.038 161.959L289.28 187.717C289.378 188.112 289.621 188.456 289.959 188.681C290.298 188.906 290.709 188.997 291.111 188.935L308.328 186.17C308.556 186.134 308.774 186.049 308.967 185.921C309.16 185.793 309.323 185.626 309.445 185.43C309.568 185.234 309.647 185.014 309.677 184.785C309.708 184.556 309.689 184.323 309.622 184.102L287.172 110.149C287.108 109.939 287.101 109.716 287.15 109.502L287.897 106.265C287.979 105.914 287.942 105.545 287.79 105.219C287.638 104.892 287.381 104.625 287.06 104.461C284.003 102.903 276.26 99.6625 270.417 103.212C270.227 103.327 270.063 103.48 269.934 103.661C269.806 103.842 269.715 104.047 269.668 104.264L252.131 186.623C252.083 186.847 252.083 187.079 252.132 187.302C252.18 187.526 252.276 187.737 252.412 187.921C252.548 188.106 252.722 188.259 252.921 188.371C253.121 188.483 253.342 188.552 253.571 188.572L274.723 190.465C274.771 190.469 274.819 190.471 274.867 190.471C275.254 190.471 275.629 190.332 275.922 190.079C276.216 189.827 276.41 189.478 276.468 189.096L276.469 189.096Z" fill="#2F2E41"/>
<path d="M290.074 62.1089C289.407 61.7083 288.816 61.1946 288.326 60.591C288.084 60.286 287.925 59.9239 287.864 59.5396C287.803 59.1553 287.842 58.7617 287.977 58.3968C288.424 57.412 289.751 57.102 290.78 57.4361C291.809 57.7703 292.603 58.577 293.355 59.3543C294.017 60.0378 294.698 60.7543 295.011 61.6531C295.324 62.552 295.164 63.6919 294.382 64.2375C293.616 64.7727 292.513 64.5537 291.776 63.9789C291.08 63.3504 290.525 62.5818 290.147 61.7237L290.074 62.1089Z" fill="#2F2E41"/>
<path d="M293.069 59.5917C293.118 57.1026 295.957 55.3175 298.41 55.7588C300.863 56.2002 302.748 58.2893 303.691 60.5935C305.685 65.4619 304.188 71.017 302.267 75.9164C300.346 80.8157 297.969 85.786 298.249 91.0389C298.439 93.8781 299.393 96.6134 301.009 98.9559C302.626 101.298 304.846 103.161 307.435 104.348C304.667 105.601 301.359 104.306 299.033 102.352C293.868 98.0122 291.874 90.2857 294.295 83.9918C295.489 80.8873 297.593 78.2313 299.237 75.339C300.88 72.4467 302.085 69.0379 301.237 65.8219C300.388 62.6059 296.778 60.0025 293.692 61.2466L293.069 59.5917Z" fill="#2F2E41"/>
<path d="M283.681 72.2709C284.451 70.9695 285.229 69.261 283.82 68.1233C283.514 67.8872 283.164 67.7147 282.79 67.6158C282.416 67.517 282.026 67.4939 281.642 67.5478C280.054 67.7392 278.324 67.8179 276.787 67.2413C276.21 67.0431 275.679 66.731 275.226 66.3238C274.772 65.9165 274.405 65.4224 274.146 64.8706C273.354 62.9916 274.346 60.7082 276.006 59.5205C277.021 58.8203 278.22 58.4352 279.454 58.4133C280.687 58.3915 281.899 58.734 282.938 59.3979C285.088 58.4494 287.695 58.8713 289.648 60.177C291.6 61.4827 292.936 63.5735 293.662 65.8062C294.331 67.7279 294.446 69.7986 293.994 71.7824C293.631 73.1626 292.94 74.4349 291.98 75.4917C291.021 76.5486 289.82 77.3587 288.481 77.8537C287.959 78.0593 287.392 78.1244 286.837 78.0423C286.282 77.9602 285.759 77.7339 285.319 77.3861C284.604 76.7456 284.055 75.9416 283.719 75.043C283.426 74.0586 283.269 72.9662 283.681 72.2709Z" fill="#2F2E41"/>
<path d="M257.451 80.1539C257.495 80.3479 257.524 80.5452 257.537 80.7438L273.001 89.6577L276.76 87.4956L280.767 92.737L274.485 97.2109C273.977 97.5724 273.366 97.7597 272.743 97.7445C272.12 97.7293 271.518 97.5125 271.029 97.1267L255.081 84.5569C254.361 84.8233 253.577 84.8644 252.834 84.6748C252.09 84.4851 251.421 84.0736 250.917 83.4951C250.413 82.9165 250.097 82.1984 250.012 81.4361C249.926 80.6739 250.075 79.9037 250.438 79.228C250.802 78.5523 251.362 78.0031 252.046 77.6535C252.729 77.304 253.503 77.1706 254.264 77.2711C255.025 77.3716 255.737 77.7013 256.306 78.2163C256.875 78.7312 257.274 79.4071 257.449 80.1539L257.451 80.1539Z" fill="#FFB8B8"/>
<path d="M273.518 90.08L278.517 96.5523C278.659 96.7362 278.839 96.8874 279.045 96.9955C279.251 97.1036 279.478 97.1662 279.71 97.1789C279.942 97.1916 280.174 97.1542 280.391 97.0693C280.607 96.9843 280.803 96.8537 280.965 96.6864L286.623 90.8159C287.099 90.4641 287.5 90.0219 287.805 89.5147C288.11 89.0075 288.311 88.4452 288.398 87.86C288.484 87.2749 288.455 86.6784 288.31 86.1048C288.166 85.5311 287.91 84.9916 287.556 84.517C287.203 84.0425 286.759 83.6423 286.251 83.3394C285.742 83.0365 285.179 82.8369 284.593 82.7519C284.007 82.6669 283.41 82.6982 282.836 82.8441C282.263 82.99 281.723 83.2476 281.249 83.6021C281.201 83.6384 281.152 83.6758 281.105 83.7141L274.009 87.6787C273.806 87.7923 273.629 87.9483 273.492 88.1361C273.355 88.3238 273.259 88.539 273.213 88.7669C273.166 88.9948 273.169 89.23 273.222 89.4566C273.274 89.6832 273.375 89.8958 273.517 90.08H273.518Z" fill="#CBCBCB"/>
<path d="M82.5323 193.278L87.3299 193.278L89.6125 174.788L82.5316 174.789L82.5323 193.278Z" fill="#A0616A"/>
<path d="M81.3085 191.713L90.7569 191.713H90.7573C92.3542 191.713 93.8856 192.347 95.0148 193.475C96.144 194.603 96.7784 196.133 96.7785 197.729V197.924L81.3088 197.925L81.3085 191.713Z" fill="#2F2E41"/>
<path d="M45.1761 191.203L49.9198 191.92L54.9429 173.979L48.7239 172.921L45.1761 191.203Z" fill="#A0616A"/>
<path d="M44.2 189.473L53.5423 190.884C55.1212 191.122 56.541 191.978 57.4887 193.262C58.4364 194.546 58.8347 196.154 58.5961 197.732L58.5669 197.925L43.2709 195.615L44.2 189.473Z" fill="#2F2E41"/>
<path d="M59.9685 101.647L65.2954 103.042L64.9411 111.671L64.8971 127.382C65.4219 127.745 65.8242 128.258 66.0507 128.854C66.2771 129.45 66.3172 130.101 66.1655 130.72C66.0137 131.34 65.6775 131.898 65.201 132.323C64.7246 132.747 64.1306 133.016 63.4974 133.096C62.8643 133.175 62.2219 133.061 61.6553 132.768C61.0887 132.475 60.6245 132.016 60.3242 131.454C60.0238 130.891 59.9015 130.251 59.9733 129.617C60.0452 128.984 60.3078 128.387 60.7265 127.906L59.0896 112.137L59.9685 101.647Z" fill="#A0616A"/>
<path d="M59.0412 91.7634C59.0706 90.9294 59.3398 90.1216 59.8165 89.4364C60.2932 88.7512 60.9573 88.2176 61.7294 87.8995C62.4521 87.5764 63.2536 87.4712 64.0353 87.5968C64.8171 87.7225 65.5451 88.0734 66.13 88.6067C66.5505 88.982 66.8839 89.4445 67.107 89.9618C67.3302 90.479 67.4377 91.0388 67.4221 91.6019C67.4362 96.657 66.294 104.025 66.2824 104.099L66.2642 104.216L58.4779 106.836L59.0412 91.7634Z" fill="#CBCBCB"/>
<path d="M72.9634 106.113L84.8727 103.033L90.3777 121.558L90.5734 190.57L81.4664 190.513L77.6594 134.656L53.3967 186.269L43.6134 185.096L64.9411 129.769C64.9411 129.769 63.7671 119.994 67.4847 115.106L66.7021 110.023L72.9634 106.113Z" fill="#2F2E41"/>
<path d="M64.9332 110.722C64.7667 110.52 64.6457 110.284 64.5786 110.031C64.5114 109.778 64.4995 109.514 64.5439 109.255L59.1116 92.9723C58.858 92.2111 58.8311 91.3927 59.0341 90.6165C59.2371 89.8403 59.6613 89.1397 60.2551 88.5998L62.6134 86.4581L64.2115 80.071L73.3966 82.3144L72.6398 85.3389L76.7968 84.584L85.5525 104.069L67.2508 111.378L66.3495 111.392C66.0784 111.392 65.8107 111.332 65.5657 111.217C65.3207 111.101 65.1046 110.932 64.9332 110.722Z" fill="#CBCBCB"/>
<path d="M77.6819 96.9738L82.9301 95.3074L87.2471 102.79L95.6152 116.091C96.2527 116.118 96.8673 116.337 97.3776 116.719C97.8879 117.102 98.2699 117.631 98.473 118.235C98.6761 118.84 98.6907 119.491 98.515 120.104C98.3393 120.717 97.9815 121.262 97.4889 121.668C96.9963 122.073 96.3922 122.319 95.7565 122.374C95.1207 122.429 94.4833 122.29 93.9285 121.975C93.3737 121.66 92.9277 121.184 92.6495 120.61C92.3713 120.036 92.274 119.392 92.3705 118.761L82.5511 106.309L77.6819 96.9738Z" fill="#A0616A"/>
<path d="M71.6105 89.1153C71.1892 88.3948 70.9845 87.5684 71.0208 86.7348C71.0571 85.9011 71.333 85.0956 71.8153 84.4145C72.2535 83.7556 72.8746 83.2388 73.6024 82.9275C74.3303 82.6161 75.1333 82.5238 75.9129 82.6618C76.469 82.7545 76.9981 82.9672 77.4635 83.2852C77.9288 83.6032 78.3191 84.0188 78.6072 84.503C81.3234 88.7678 84.3001 95.6054 84.3298 95.6738L84.377 95.7826L79.198 102.155L71.6105 89.1153Z" fill="#CBCBCB"/>
<path d="M71.0073 78.8825C75.0378 78.8825 78.3052 75.6179 78.3052 71.5907C78.3052 67.5636 75.0378 64.299 71.0073 64.299C66.9767 64.299 63.7094 67.5636 63.7094 71.5907C63.7094 75.6179 66.9767 78.8825 71.0073 78.8825Z" fill="#A0616A"/>
<path d="M58.1102 68.515C61.9927 68.515 65.14 65.3703 65.14 61.4911C65.14 57.612 61.9927 54.4673 58.1102 54.4673C54.2278 54.4673 51.0805 57.612 51.0805 61.4911C51.0805 65.3703 54.2278 68.515 58.1102 68.515Z" fill="#2F2E41"/>
<path d="M52.0467 67.3073C52.9566 67.9644 54.0107 68.3942 55.1209 68.5607C56.2311 68.7273 57.3651 68.6258 58.428 68.2647C59.4908 67.9036 60.4517 67.2934 61.2302 66.4852C62.0087 65.677 62.5821 64.6942 62.9025 63.6192C62.7813 64.5826 62.4614 65.5104 61.9632 66.3441C61.465 67.1778 60.7991 67.8992 60.0078 68.4628C59.2164 69.0264 58.3167 69.4199 57.3654 69.6185C56.4142 69.8172 55.432 69.8166 54.481 69.6168C53.53 69.417 52.6307 69.0224 51.84 68.4579C51.0494 67.8934 50.3844 67.1712 49.8871 66.3369C49.3899 65.5027 49.0712 64.5745 48.9511 63.6109C48.8309 62.6474 48.9121 61.6694 49.1894 60.7388C49.0319 61.9891 49.2141 63.2587 49.7168 64.4144C50.2196 65.5701 51.0243 66.5694 52.0467 67.3073Z" fill="#2F2E41"/>
<path d="M79.7893 67.3152C78.5621 65.12 78.0925 64.203 76.5101 62.8681C75.1108 61.6875 73.3897 61.3408 72.0015 62.4594C70.3592 61.7504 68.5318 61.5897 66.7908 62.001C65.0498 62.4123 63.488 63.3738 62.3375 64.7426C61.1869 66.1115 60.509 67.8146 60.4043 69.5991C60.2997 71.3835 60.774 73.1541 61.7566 74.6478C62.7393 76.1415 64.178 77.2786 65.8591 77.8903C67.5401 78.502 69.3737 78.5555 71.0876 78.043C72.8015 77.5305 74.3043 76.4793 75.3726 75.0455C76.441 73.6117 77.0179 71.8718 77.0178 70.0843C77.0165 69.7704 76.9976 69.4568 76.9611 69.1451C78.1679 68.9757 78.5826 67.4845 79.7893 67.3152Z" fill="#2F2E41"/>
<path d="M151.173 198H0.39574C0.290783 198 0.190125 197.958 0.115909 197.884C0.0416936 197.81 0 197.71 0 197.605C0 197.5 0.0416936 197.399 0.115909 197.325C0.190125 197.251 0.290783 197.209 0.39574 197.209H151.173C151.278 197.209 151.378 197.251 151.452 197.325C151.527 197.399 151.568 197.5 151.568 197.605C151.568 197.71 151.527 197.81 151.452 197.884C151.378 197.958 151.278 198 151.173 198Z" fill="#CBCBCB"/>
<path d="M352.604 198H201.827C201.722 198 201.622 197.958 201.548 197.884C201.473 197.81 201.432 197.71 201.432 197.605C201.432 197.5 201.473 197.399 201.548 197.325C201.622 197.251 201.722 197.209 201.827 197.209H352.604C352.709 197.209 352.81 197.251 352.884 197.325C352.958 197.399 353 197.5 353 197.605C353 197.71 352.958 197.81 352.884 197.884C352.81 197.958 352.709 198 352.604 198Z" fill="#CBCBCB"/>
<path d="M156.039 7.80933H155.248V127.633H156.039V7.80933Z" fill="#CBCBCB"/>
</g>
<defs>
<clipPath id="clip0_130_372">
<rect width="353" height="198" fill="white"/>
</clipPath>
</defs>
</svg>
