<svg width="292" height="227" viewBox="0 0 292 227" fill="none" xmlns="http://www.w3.org/2000/svg">
<g clip-path="url(#clip0_130_169)">
<path d="M177.424 141.316L176.948 146.917C176.892 147.571 176.579 148.176 176.078 148.599C175.576 149.022 174.928 149.229 174.275 149.174L127.651 145.203C126.998 145.146 126.394 144.833 125.972 144.331C125.549 143.829 125.343 143.18 125.397 142.526L125.873 136.925C125.93 136.271 126.243 135.666 126.744 135.243C127.245 134.82 127.893 134.613 128.547 134.668L175.17 138.639C175.823 138.696 176.427 139.009 176.85 139.511C177.272 140.013 177.479 140.662 177.424 141.316Z" fill="#6C63FF"/>
<path d="M186.717 168.638L181.553 170.844C180.299 171.38 179.008 171.181 178.676 170.401L167.27 143.634C166.938 142.854 167.688 141.784 168.942 141.248L174.106 139.042C175.36 138.506 176.65 138.705 176.983 139.485L188.388 166.252C188.72 167.032 187.97 168.102 186.717 168.638Z" fill="#6C63FF"/>
<path d="M159.379 159.966H71.9339C72.941 152.667 71.6988 145.234 68.3733 138.661C65.0478 132.089 59.7976 126.689 53.3247 123.184C46.8517 119.68 39.4645 118.238 32.1508 119.05C24.8372 119.863 17.9456 122.892 12.3975 127.733C6.84952 132.573 2.9095 138.994 1.10428 146.137C-0.700933 153.28 -0.285293 160.805 2.29563 167.705C4.87654 174.605 9.49973 180.552 15.547 184.75C21.5943 188.948 28.7775 191.198 36.1361 191.198C40.5569 191.202 44.9408 190.392 49.069 188.809V223.953C49.069 224.761 49.3896 225.536 49.9602 226.108C50.5309 226.679 51.3049 227 52.112 227H159.379C160.186 227 160.96 226.679 161.531 226.108C162.101 225.536 162.422 224.761 162.422 223.953V163.013C162.422 162.205 162.101 161.43 161.531 160.858C160.96 160.287 160.186 159.966 159.379 159.966Z" fill="#E6E6E6"/>
<path d="M165.845 219.002H58.5784C57.6708 219.001 56.8006 218.639 56.1588 217.996C55.517 217.354 55.156 216.483 55.155 215.574V154.634C55.156 153.725 55.517 152.854 56.1588 152.211C56.8006 151.568 57.6708 151.207 58.5784 151.206H165.845C166.753 151.207 167.623 151.568 168.265 152.211C168.907 152.854 169.268 153.725 169.269 154.634V215.574C169.268 216.483 168.907 217.354 168.265 217.996C167.623 218.639 166.753 219.001 165.845 219.002ZM58.5784 151.968C57.8725 151.968 57.1957 152.25 56.6965 152.749C56.1974 153.249 55.9166 153.927 55.9158 154.634V215.574C55.9166 216.281 56.1974 216.958 56.6965 217.458C57.1957 217.958 57.8725 218.239 58.5784 218.24H165.845C166.551 218.239 167.228 217.958 167.727 217.458C168.226 216.958 168.507 216.281 168.508 215.574V154.634C168.507 153.927 168.226 153.249 167.727 152.749C167.228 152.25 166.551 151.968 165.845 151.968H58.5784Z" fill="#3F3D56"/>
<path d="M166.013 145.506L165.537 151.107C165.48 151.761 165.167 152.366 164.666 152.789C164.165 153.212 163.517 153.419 162.864 153.364L116.24 149.392C115.587 149.336 114.983 149.023 114.56 148.521C114.138 148.019 113.931 147.37 113.986 146.716L114.462 141.114C114.518 140.461 114.831 139.856 115.333 139.433C115.834 139.009 116.482 138.803 117.135 138.858L163.759 142.829C164.412 142.885 165.016 143.199 165.438 143.701C165.861 144.203 166.067 144.852 166.013 145.506Z" fill="#6C63FF"/>
<path d="M175.305 172.828L170.141 175.034C168.887 175.569 167.597 175.371 167.264 174.591L155.859 147.824C155.527 147.044 156.277 145.973 157.531 145.438L162.695 143.232C163.948 142.696 165.239 142.895 165.571 143.674L176.977 170.442C177.309 171.222 176.559 172.292 175.305 172.828Z" fill="#6C63FF"/>
<path d="M260.261 0.411046L250.596 7.82068L257.996 17.4977L267.661 10.0881L260.261 0.411046Z" fill="#6C63FF"/>
<path d="M205.611 76.9948C210.232 76.9948 213.979 73.2433 213.979 68.6155C213.979 63.9878 210.232 60.2363 205.611 60.2363C200.989 60.2363 197.242 63.9878 197.242 68.6155C197.242 73.2433 200.989 76.9948 205.611 76.9948Z" fill="#FF6584"/>
<path d="M203.464 74.5791C202.412 73.2035 201.791 71.5464 201.679 69.8174C201.568 68.0884 201.971 66.3651 202.838 64.8656C203.705 63.366 204.996 62.1574 206.549 61.3927C208.101 60.628 209.846 60.3415 211.561 60.5694C213.276 60.7973 214.885 61.5294 216.185 62.6732C217.485 63.8169 218.417 65.3208 218.863 66.9948C219.309 68.6689 219.249 70.4377 218.691 72.0778C218.134 73.7179 217.103 75.1555 215.729 76.2088C213.885 77.6187 211.559 78.2389 209.26 77.9334C206.96 77.6279 204.876 76.4216 203.464 74.5791ZM216.752 64.3909C215.792 63.1348 214.481 62.1922 212.985 61.6822C211.49 61.1721 209.877 61.1176 208.35 61.5255C206.824 61.9333 205.453 62.7853 204.41 63.9735C203.367 65.1618 202.699 66.6331 202.491 68.2013C202.284 69.7694 202.545 71.3641 203.242 72.7836C203.939 74.2031 205.041 75.3837 206.409 76.1761C207.776 76.9685 209.348 77.337 210.924 77.2352C212.501 77.1334 214.012 76.5657 215.266 75.604C216.946 74.3129 218.046 72.4072 218.325 70.3051C218.603 68.203 218.038 66.076 216.752 64.3909Z" fill="#3F3D56"/>
<path d="M260.894 18.1546L253.031 7.87274L263.3 0L271.162 10.2818L260.894 18.1546ZM254.098 8.01445L261.035 17.0867L270.096 10.1401L263.158 1.06793L254.098 8.01445Z" fill="#3F3D56"/>
<path d="M281.099 68.3831L271.434 75.7927L278.834 85.4697L288.499 78.0601L281.099 68.3831Z" fill="#6C63FF"/>
<path d="M281.732 86.1266L273.869 75.8448L284.138 67.972L292 78.2539L281.732 86.1266ZM274.936 75.9865L281.873 85.0587L290.933 78.1122L283.996 69.04L274.936 75.9865Z" fill="#3F3D56"/>
<path d="M237.737 218.24H0.380371V219.002H237.737V218.24Z" fill="#3F3D56"/>
<path d="M41.081 181.676C33.8587 181.676 26.7986 179.531 20.7935 175.514C14.7884 171.496 10.108 165.785 7.34419 159.104C4.58035 152.423 3.8572 145.071 5.2662 137.979C6.67519 130.886 10.1531 124.371 15.26 119.257C20.3669 114.144 26.8735 110.661 33.957 109.25C41.0405 107.84 48.3827 108.564 55.0552 111.331C61.7277 114.099 67.4308 118.785 71.4433 124.798C75.4558 130.811 77.5974 137.88 77.5974 145.112C77.5864 154.806 73.7357 164.1 66.8899 170.954C60.0441 177.809 50.7624 181.665 41.081 181.676ZM41.081 109.31C34.0092 109.31 27.0962 111.409 21.2162 115.343C15.3362 119.277 10.7533 124.869 8.04704 131.411C5.34078 137.953 4.6327 145.152 6.01234 152.096C7.39198 159.041 10.7974 165.421 15.7979 170.428C20.7984 175.435 27.1695 178.845 34.1054 180.226C41.0413 181.608 48.2306 180.899 54.7641 178.189C61.2976 175.479 66.8818 170.89 70.8107 165.002C74.7396 159.115 76.8366 152.193 76.8366 145.112C76.8259 135.62 73.0554 126.52 66.3522 119.808C59.649 113.096 50.5607 109.32 41.081 109.31Z" fill="#3F3D56"/>
<path d="M120.36 90.8485C131.603 90.8485 140.718 81.7222 140.718 70.4644C140.718 59.2065 131.603 50.0803 120.36 50.0803C109.117 50.0803 100.003 59.2065 100.003 70.4644C100.003 81.7222 109.117 90.8485 120.36 90.8485Z" fill="#6C63FF"/>
<path d="M123.356 78.0194L123.335 77.2576C124.75 77.2182 125.998 77.1293 126.935 76.4434C127.201 76.2379 127.42 75.9775 127.576 75.6799C127.732 75.3823 127.823 75.0544 127.841 74.7187C127.858 74.5135 127.827 74.3074 127.751 74.1162C127.674 73.9249 127.555 73.7539 127.403 73.6162C126.78 73.0899 125.779 73.2603 125.049 73.5954L124.419 73.8844L125.626 65.0518L126.38 65.1552L125.353 72.6685C126.345 72.3765 127.264 72.5023 127.894 73.0345C128.135 73.2458 128.325 73.5102 128.448 73.807C128.571 74.1038 128.623 74.425 128.601 74.7455C128.579 75.1966 128.459 75.6374 128.248 76.037C128.038 76.4365 127.743 76.7852 127.384 77.0586C126.179 77.9401 124.614 77.984 123.356 78.0194Z" fill="#2F2E41"/>
<path d="M134.205 65.8031H130.108V66.5649H134.205V65.8031Z" fill="#2F2E41"/>
<path d="M121.272 65.8031H117.175V66.5649H121.272V65.8031Z" fill="#2F2E41"/>
<path d="M149.489 152.158H101.561C101.107 152.158 100.672 151.977 100.352 151.656C100.031 151.334 99.8501 150.899 99.8496 150.444V111.892C99.8549 107.218 101.711 102.738 105.011 99.4336C108.312 96.1291 112.786 94.2703 117.453 94.265H133.133C133.582 94.2655 134.012 94.4424 134.332 94.7575C134.653 95.0726 134.836 95.5009 134.844 95.9503L151.201 150.416V150.444C151.2 150.899 151.02 151.334 150.699 151.656C150.378 151.977 149.943 152.158 149.489 152.158Z" fill="#2F2E41"/>
<path d="M117.652 109.864L123.266 109.908C123.922 109.914 124.548 110.18 125.008 110.648C125.468 111.115 125.724 111.747 125.719 112.403L125.352 159.254C125.346 159.911 125.08 160.538 124.613 160.998C124.146 161.459 123.515 161.715 122.86 161.71L117.246 161.666C116.59 161.66 115.964 161.394 115.504 160.927C115.044 160.459 114.788 159.828 114.793 159.171L115.161 112.32C115.166 111.663 115.432 111.036 115.899 110.576C116.366 110.115 116.997 109.859 117.652 109.864Z" fill="#6C63FF"/>
<path d="M112.022 107.976C112.022 105.754 112.903 103.623 114.473 102.051C116.042 100.48 118.171 99.5972 120.39 99.5972C122.61 99.5972 124.738 100.48 126.307 102.051C127.877 103.623 128.758 105.754 128.758 107.976V126.639H112.022V107.976Z" fill="#2F2E41"/>
<path d="M114.347 60.8637C116.275 58.8772 119.076 58.5356 121.712 58.7518C124.534 58.9833 127.209 59.9222 129.978 60.4444C132.709 60.9595 135.67 61.1902 138.28 60.0493C139.485 59.5073 140.53 58.6618 141.311 57.5951C142.093 56.5285 142.585 55.2771 142.739 53.9633C143.075 51.2041 142.361 48.4194 140.74 46.1635C138.952 43.634 136.412 41.7813 133.772 40.226C128.081 36.8736 121.735 33.9401 115.076 33.3978C109.064 32.9082 102.69 34.5718 98.4609 39.0673C94.4967 43.2815 92.8091 49.1628 92.4582 54.8265C92.0104 62.0552 93.6952 69.1939 94.3049 76.3615C94.7793 81.9388 94.6016 88.6343 90.078 92.6396C86.0768 96.1824 79.9842 96.1401 75.2668 94.2048C69.6596 91.9045 65.7252 86.7406 62.7493 81.6653C61.9918 80.3732 61.2797 79.0552 60.589 77.7263C60.2499 77.0737 59.2648 77.6508 59.6037 78.303C62.3886 83.662 65.6281 89.0148 70.4995 92.7283C74.7587 95.9752 80.4419 97.5393 85.7066 96.167C88.2591 95.529 90.5392 94.0863 92.2103 92.0518C94.0146 89.8007 94.9616 87.0309 95.3566 84.1972C95.7794 81.1643 95.632 78.108 95.3257 75.0717C94.957 71.4163 94.3692 67.7876 93.9666 64.1362C93.281 57.9176 93.1865 51.4637 95.6405 45.5882C96.6984 42.9678 98.342 40.6252 100.445 38.7402C102.747 36.797 105.509 35.4784 108.466 34.9107C114.917 33.5703 121.474 35.3851 127.314 38.12C130.261 39.4383 133.083 41.0233 135.742 42.8552C138.099 44.5446 140.295 46.7574 141.203 49.5788C141.986 52.0103 141.921 54.8887 140.36 57.0089C138.693 59.2748 135.803 59.8406 133.153 59.7042C127.712 59.424 122.227 56.2573 116.752 58.0646C115.536 58.4581 114.434 59.1414 113.54 60.0557C113.028 60.5833 113.834 61.3922 114.347 60.8637Z" fill="#2F2E41"/>
</g>
<defs>
<clipPath id="clip0_130_169">
<rect width="292" height="227" fill="white"/>
</clipPath>
</defs>
</svg>
